/* XPM */
static char *Bishop_W_wood[] = {
/* width height ncolors chars_per_pixel */
"41 42 30 1",
/* colors */
"  c #000000",
". c #D19849",
"X c #946A2E",
"o c #72361A",
"O c #5F301B",
"+ c #CF9239",
"@ c #E5A644",
"# c #F3B255",
"$ c #DB9F44",
"% c #F8B046",
"& c #FABB58",
"* c #FFCD60",
"= c #FEC05B",
"- c #FFFF86",
"; c #FEB140",
": c #FFF47C",
"> c #EAA940",
", c #FBB754",
"< c #5D391C",
"1 c #FEC264",
"2 c #F2AA41",
"3 c #FFE66E",
"4 c #E3AD59",
"5 c #803C19",
"6 c #562C1A",
"7 c #FFB542",
"8 c #FEB958",
"9 c #443115",
"0 c #B5843B",
"q c None",
/* pixels */
"00.4+>>44444$>444444$>>>444$>>4444$>##=33",
"X0.4$2222#&&$2#2#&&&$22###&$22###&$2#=*::",
"X0.4@;;,,,11@;;;,111@;;;,,1@;;,,,1@;8*3:-",
"XX.4@;;8;811>;;8811>>;;;881>;;8881>;773-q",
"XX.4@;;88811>;;8811>;;;8881>;;8881>77=3-q",
"qX04$;;;8811>;;;811>;;8;881>;88881>77*3:q",
"qX04$;;;8811>;8;811>;;;8881>;88881>77=3-q",
"qX0.$;;;8811>;;8811>;;8;881>;;;881>77=3-q",
"qX00>2;;8811>ooo811>;;8;811>;;8661>77=3-q",
"qX00>2;;8811oooooo1>;;8;811>;55881>7**3:q",
"qXX+>2;;881>OO;8111>;88;811>oo8881>7733:q",
"qXX0$#,8811>6688111>;;8;811oo;8881>7733qq",
"qqX0$2,;811>oo;8111>;88;81155;8881>7=*:qq",
"qqX0+2,8811>6688111>;88;81OO;;8881>7=*:qq",
"qq5X+>,;811>5o88111>;;;;8155;8;88127=*:qq",
"qq5X+#,;811>O6OOOOO<<<<ooooo;8888127=*:qq",
"qq5X+>,;811>99;81116O;8;81oo;;881127**:qq",
"qq5X+>#8811>6688111Oo;8881oo;;881117*33qq",
"qq5X0$#;81>>oo;8111oo;8;88oo;;8811*7*3qqq",
"qqqX0$#;81>;5o88111oo;;881oo8;8811*7*:qqq",
"qqqX0+#;81>;555555o5555555oo;;8811*7*3qqq",
"qqqXX+#,81>;oo88111oo;;881Oo;;8811*7*3qqq",
"qqqXX+#,81>;oo8811155;8;81558;8551*,*3qqq",
"qqqXX+#,81>;558881155;;;8155;55811*,*3qqq",
"qqqXX+>,11>55555555555555555o58811*=*3qqq",
"qqqXX+>#11>;55881115;;8;81>55;8811*=*3qqq",
"qqqXX0$#11>;;888115>;;8;8155;8881*3*3qqqq",
"qqqqX0$#11>;88881o5>;;8;855;;;881*3*3qqqq",
"qqqqX0+#11>;;88oOOoOoOoOooo;;;881*3*3qqqq",
"qqqqX0+#11>;;;81oo1>;;8855>;;;881*3*3qqqq",
"qqqqX0+#11>;;888111>;;;ooo>;;;881*3*3qqqq",
"qqqqX0+#11>;8881111>;;;81o>;;8888*3*3qqqq",
"qqqqXX+411>;8888111>;;;811>;;8881*3*3qqqq",
"qqqqXX+4&1>;;888111>;;;811>;88881*3*3qqqq",
"qqqqXX0$&1>;8;81111>;;;888>;;888**3*3qqqq",
"qqqqqX0.4&@;;881111>;;;881>;888=*33*qqqqq",
"qqqqqXX.@#$22,,1111>;;;881>78===*33*qqqqq",
"qqqqqqX0.4+>>#,1111>;;;881277==1*33*qqqqq",
"qqqqqq00..0+$4##111>;;8==*%7===11*qqqqqqq",
"qqqqqqqqqq0+..@#&11@;;7==*%777qqqqqqqqqqq",
"qqqqqqqqqqqq0+.$4#&$228==12qqqqqqqqqqqqqq",
"qqqqqqqqqqqqqq..444$>228qqqqqqqqqqqqqqqqq"
};
