/* XPM */
static char *Bishop_B_wood[] = {
/* width height ncolors chars_per_pixel */
"41 42 30 1",
/* colors */
"  c #000000",
". c #D19849",
"X c #946A2E",
"o c #72361A",
"O c #5F301B",
"+ c #CF9239",
"@ c #E5A644",
"# c #F3B255",
"$ c #DB9F44",
"% c #F8B046",
"& c #FFC35D",
"* c #FABB58",
"= c #FFCD60",
"- c #FEC05B",
"; c #FFFF86",
": c #FEB140",
"> c #FFF47C",
", c #EAA940",
"< c #FBB754",
"1 c #5D391C",
"2 c #FEC264",
"3 c #F2AA41",
"4 c #FFE66E",
"5 c #E3AD59",
"6 c #803C19",
"7 c #562C1A",
"8 c #FFB542",
"9 c #FEB958",
"0 c #B5843B",
"q c None",
/* pixels */
"qqqqqqqqqqqqqqqqq.+$,,5##23qqqqqqqqqqqqqq",
"qqqqqqqqqqqqqq+..5+,,#3#<2%8=qqqqqqqqqqqq",
"qqqqqqqqqqq0+.+$55$33:<<92%8==&qqqqqqqqqq",
"qqqqqqq0...++$@5#*@::9:992%888&&=8-qqqqqq",
"qqqqqX0+.55+,,##22,::9:922388&&&=8=qqqqqq",
"qqqqqX0.@#*@33<222,::9:922,89---=8=4qqqqq",
"qqqqqX0.#*@<::9222,:99:922,::99-=8==qqqqq",
"qqqqXX0@*2,:999222,::9:922,9:999=8==>qqqq",
"qqqqXX+5*2,:::9222,:99:922,9:99928==4qqqq",
"qqqqXX.522,::99222,:99:922,::9992%-=4qqqq",
"qqqqX0+#22,::99622,::::922,:9:992%-=4qqqq",
"qqqqX0+#22,:999OOO,:99:922,:99992%-=4qqqq",
"qqqqX0+#22,:9:9772,::9:oo2,::9922%-=4qqqq",
"qqqqX0.#22,:99777OOooooooo,::9922=8=>qqqq",
"qqqqX0+#2,,:::oo22,::9oo92,::9922=8=4qqqq",
"qqqqX0$#2,::9oo222,:::o922,9:992228=4>qqq",
"qqqXX0$#2,::669222,::69922,o6992228==>qqq",
"qqqXX.5#2,:oo1Oooooooooo1Oo11o9222%-=4qqq",
"qqqXX.5<2,oo9oo222,:66:922,6o99222%-=>qqq",
"qqqXX.#<66:::66922,:66:92,:6699222%-=>qqq",
"qqqXX+#22,::966222,:66992,:o699222%-=>qqq",
"qqqXX+#22,:::66oo66666666666699222%-=>qqq",
"qqqX0+#22,::966222,:66:92,:6699222%844qqq",
"qqqX0$#22,:9966222,:66:92,:669922238=4>qq",
"qqXX0$#22,::9oo222,:Oo992,:oo9922238=4>qq",
"qqXX.,#22,:::66222,:66992,:o69922238-4>qq",
"qqXX.,<22,::9o666oooo6ooooooo9922238-4>qq",
"qqXX.,<22,:9966222,:::922,:oo99922,8-4>qq",
"qqXX.,<22,:99oo222,:::922,:7O99222,8-=>qq",
"qqX0+3<22,::oo9222,:::922,:7799222,8844qq",
"qqX0$3<22,:9oo2222,:::999,:1199222,8==4;q",
"q6X0@#<22,:6692222,:::992,:6699222,88=4;q",
"q6X+,3992,17992222,:::977777799222,88-4>q",
"q6X+53996o::992222,:::99266o992222,88-4>q",
"q6X+,3:92,::999222,::9992,:9992222,88-4>q",
"q6X.#::92,:9999222,:::992,:::92222,88-4>q",
"q6X+#<:92,::999222,::9992,::992222,:8844q",
"qX0+3::92,::999222,:::992,:9992222,:8844>",
"qX0$3<:92,::::9222,::9992,::992222,:88=4;",
"XX+$#3:<2@:<<<<222@::<<<2@:<<<2222@:9&=4;",
"XX0$,33#*$333##***$3####*$333##***$33:=4>",
"000$,,,55$,,,55555$,5,555$,5555555$,539=4"
};
