/* XPM */
static char *Gold_General_B_wood[] = {
/* width height ncolors chars_per_pixel */
"41 40 29 1",
/* colors */
"  c #000000",
". c #D19849",
"X c #946A2E",
"o c #72361A",
"O c #5F301B",
"+ c #CF9239",
"@ c #E5A644",
"# c #F3B255",
"$ c #DB9F44",
"% c #F8B046",
"& c #FFC35D",
"* c #FABB58",
"= c #FFCD60",
"- c #FEC05B",
"; c #FEB140",
": c #FFF47C",
"> c #EAA940",
", c #FBB754",
"< c #5D391C",
"1 c #FEC264",
"2 c #F2AA41",
"3 c #FFE66E",
"4 c #E3AD59",
"5 c #803C19",
"6 c #562C1A",
"7 c #FFB542",
"8 c #FEB958",
"9 c #B5843B",
"0 c None",
/* pixels */
"00000000000000000.+$>>##,1000000000000000",
"00000000000000...4+>>#2,8=%70000000000000",
"000000000009++.$44$22,;81=777&00000000000",
"000000009..++$@4#*@;;8;81=%7&&&&=,0000000",
"000000X99.+@>>#*11>;88;811277&&&3-0000000",
"000000X9.4$2#,,111>;;8;811>87--=3==000000",
"000000X94#@;;;8111>;88;811>8;8-&3==000000",
"00000XX94*@;;88111>;88;811>;;88-3-=300000",
"00000XX.4*>;;88111>;;;;811>;8;8-=-=300000",
"00000XX.41>;888111>;<<;811>;8888=,=300000",
"00000XX.#1>;8;8111>;<<;811>;;881=7=300000",
"00000X9.#1>;888111>oo8o811>;;881=3=300000",
"00000XX.#@>;;;8111>oo8;o81>;;881=3=300000",
"00000X9.#@;;888111oo;;8oo1>8;881=3=300000",
"00000X9$*>;;8;811o5;;8885o>;;8811=-=30000",
"0000XX9@*>;;8881oo>;;;881Oo;;8811=-=30000",
"0000XX.41>;;888551>;;8;81155o8811=,=30000",
"0000XX.41>;;;85511>;;;;55>;555511=,=30000",
"0000XX.#1>;;85815555555555;;55551=7=30000",
"0000XX.#1>;5588111>;55;81>;;;8551=7=30000",
"0000XX.#155;888111>;55;81>;;88811=7=:0000",
"0000X9.#1>;8888111>;55;81>;558811=7=30000",
"0000X9$*1>;;oooOOoOoOoOooooooo81117==:000",
"000XX9@*1>;;;81111>;55881>;;;881117==:000",
"000XX+411>;;888111>;o5888>o;;88111%-=:000",
"000X9+411>;8851111>;oo811>ooo88811%-=:000",
"000X9+#11>;888oo11>;oo811>O6888111%-=3000",
"000X9+#11>;;888oo1>;o<811O68888111%7=3000",
"000X9$#11>;8;81oo1>;oo888O;;888111273=:00",
"00XX9@#11>;;881551>;55885>;888811127==:00",
"00XX+>#81>;;881111>;OO881>;886611127-=:00",
"00XX.>,81>oooo5555555555555ooooo1127-=:00",
"00XX+>281>;;888111>;;8881>;8881111>7-=:00",
"00X9.>;81>;8888111>;;;881>;;;81111>7-=:00",
"00XX.#;81>;;888111>;;8881>;;881111>77=300",
"00X9+2;81>;;888111>;;;881>;8881111>77=3:0",
"00X9$#;81>;;;;8111>;;8881>;;881111>77=3:0",
"0XX+@22,1@;,,,,111@;;,,,1@;,,,1111@;-=330",
"0X9+$>2#*$222##***$2####*$222##***$2;7=30",
"999+$>>44$>>>44444$>4>444$>4444444$>#;==3"
};
