/* XPM */
static char *Gold_General_W_wood[] = {
/* width height ncolors chars_per_pixel */
"41 40 31 1",
/* colors */
"  c #000000",
". c #D19849",
"X c #946A2E",
"o c #72361A",
"O c #5F301B",
"+ c #CF9239",
"@ c #E5A644",
"# c #F3B255",
"$ c #DB9F44",
"% c #F8B046",
"& c #FFC35D",
"* c #FABB58",
"= c #FFCD60",
"- c #FEC05B",
"; c #FFFF86",
": c #FEB140",
"> c #FFF47C",
", c #EAA940",
"< c #FBB754",
"1 c #5D391C",
"2 c #FEC264",
"3 c #F2AA41",
"4 c #FFE66E",
"5 c #E3AD59",
"6 c #803C19",
"7 c #562C1A",
"8 c #FFB542",
"9 c #FEB958",
"0 c #443115",
"q c #B5843B",
"w c None",
/* pixels */
"qq.5+,,55555$,555555$,,,555$,,5555$,#9=4>",
"wXq5+3333#**$3#3#***$33###*$33###*$39=4>w",
"wXq.$3:<<<22@:::<222@:::<<2@::<<<2,8==4;w",
"wXq.$3:9:922,::9922,,:::992,::9992,88=4ww",
"wXX.+3:99922,::9922,:::9992,::9992,8-=>ww",
"wwXq+3::9922,:::922,::9:992,:99992,8-4>ww",
"wwXq+3::9922,:9:922,:::9992,:99992,8-=>ww",
"wwXq+,::9922,::9922,::9:992,:::99238-=>ww",
"wwXX+,3:9ooooooooooooooo666ooO799238-=>ww",
"wwXX+,3:99oo,::9222oo:9:922,:99992384=>ww",
"ww6X+,3:992,9::9O22OO99:oo2,::999238=4>ww",
"ww6Xq@#<922,:990222Oo:9:662,9:9992%8=4www",
"wwwXq$#:922,::oo2226699:662,9:9992%-=4www",
"wwwXq+#<922,:7792227799:9OO,::9992%-=4www",
"wwwXX+#:922,6o6922266:::9226:9:992%-=4www",
"wwwXX.53922,:9O92221199:922,:999928==4www",
"wwwXX+53922,:9:92227O:9:922,::99228==4www",
"wwwXXq@#<227777777OOooooooooo:992=4=4wwww",
"wwwwXq$3<2,,oo:9222oo:9:992,::992=4=4wwww",
"wwwwXq.3<2,::999222oo::9922,9:oo2=4=4wwww",
"wwwwXX.,<66::9:922266:99922,o6992=4=4wwww",
"wwwwXX.#<66oo99Oooooooooo22o::992=4=4wwww",
"wwwwXX.#<26ooo99662,::9:966,9:992=4=4wwww",
"wwwwXX.5<2,:6669922,::::66,::9992=4=4wwww",
"wwwwXX+522,::966222,:99662,:::992=4=4wwww",
"wwwwXXq@*2,:::96o22,::6692,:::99=4>=wwwww",
"wwwwwXq$*2,::999662,:66:92,::999=4>=wwwww",
"wwwwwXq.#2,:99992o2,o69:92,:::99=4>=wwwww",
"wwwwwXX.#2,::99922o,oO9992,:::99=4>=wwwww",
"wwwwwXX.#2,:::92222o6:9992,:::99=4>=wwwww",
"wwwwwXX.52,::999222oo::999,:::99=4>=wwwww",
"wwwwwXX.5*,:9992222,:::922,::99-=4>=wwwww",
"wwwwwXXq5*@:9999222,:::922,::99-=4>=wwwww",
"wwwwwwXq.5@::999222,:::922,:99-&4>>wwwwww",
"wwwwwwXq.5$3#3<2222,:::999,88--&44>wwwwww",
"wwwwwwwqq.+$,##2222,:::99238--&&44>wwwwww",
"wwwwwwwqq.q++$5#*22,::8--=%8---&=wwwwwwww",
"wwwwwwwwwww++..5#*2@::8--=%88-wwwwwwwwwww",
"wwwwwwwwwwwwwq+.55#$339--23wwwwwwwwwwwwww",
"wwwwwwwwwwwwwww..55$,339wwwwwwwwwwwwwwwww"
};
