/* XPM */
static char *King_W_wood[] = {
/* width height ncolors chars_per_pixel */
"41 43 31 1",
/* colors */
"  c #000000",
". c #D19849",
"X c #946A2E",
"o c #72361A",
"O c #5F301B",
"+ c #CF9239",
"@ c #E5A644",
"# c #F3B255",
"$ c #DB9F44",
"% c #F8B046",
"& c #FFC35D",
"* c #FABB58",
"= c #FFCD60",
"- c #FEC05B",
"; c #FFFF86",
": c #FEB140",
"> c #FFF47C",
", c #EAA940",
"< c #FBB754",
"1 c #5D391C",
"2 c #FEC264",
"3 c #F2AA41",
"4 c #FFE66E",
"5 c #E3AD59",
"6 c #803C19",
"7 c #562C1A",
"8 c #FFB542",
"9 c #FEB958",
"0 c #443115",
"q c #B5843B",
"w c None",
/* pixels */
"qq.5+,,55555$,555555$,,,555$,,5555$,5#-44",
"Xq.5$3333#**$3#3#***$33###*$33###*$3#9=4>",
"Xq.5@::<<<22@:::<222@:::<<2@::<<<2@:9&=>;",
"Xq.5@::9:922,::9922,,:::992,::9992,:884>;",
"XX.5@::99922,::9922,:::9992,::9992,:884;w",
"XX.5@:::9922,:::922,::9:992,:99992,88=4>w",
"wXq5$:::9922,:9:922,:::9992,:99992,88-4;w",
"wXq5$:::9922,::9922,::9:992,:::992,88-4;w",
"wXq+,:::9922,::9922,::9:922,::9992,88-4;w",
"wXqq,3::9922,::9222,::9:922,:99992,8&-4>w",
"wXX+,3::9oooOOOOOO1OOooooooooooo92,8844>w",
"wXX+,#999OO,:999222Oo:9:922,9:9992,8844>w",
"wXX.$3<:922,:::92226699:922,9:9992,88=4ww",
"wwXq$3<9922,::992227799:922,::9992,8-=>ww",
"wwXq+3<:922,6o9922266:::922,:9:992,8-=>ww",
"ww6X+#<:922,O7O92221199:922,:9999238-=>ww",
"ww6X+,<:922,:0792227O:9:922,::992238-=>ww",
"ww6X+,<9922,:977222Oo:99922,::992228=44ww",
"ww6X+,#:92,,:::9o22oo:9:992,::992228==>ww",
"ww6Xq@#:92,::999222oo::9922,9:9922=8=4www",
"wwwXq$#:92,::9:922266:99922,::9922=8=4www",
"wwwXq+#<926ooo1Oooooooooo1Oo119922=8=4www",
"wwwXX+#<92,oo99922266:9:922,9:9922=8=4www",
"wwwXX+#<92,:::9992266:::92,::99922=<=4www",
"wwwXX+,<22,::9:92226699992,:::9922=<=4www",
"wwwXX+,<22,:::9922266:9:92,:::9922=-=4www",
"wwwXX+,#22,::99922266:9:92,::99922=-=>www",
"wwwXXq$#22,:99992226o:9:92,:::992=4=4wwww",
"wwwwXq$#22,::999222Oo:9992,:::992=4=4wwww",
"wwwwXq+#22,:::92222o6:9992,:::992=4=4wwww",
"wwwwXq+#2666ooo666oooo6oooooooo92=4=4wwww",
"wwwwXq+#22669992222,:::922,::9999=4=4wwww",
"wwwwXq+#22,:9999222,:::922,::9992=4=4wwww",
"wwwwXX+522,::999222,:::922,:99992=4=4wwww",
"wwwwXX+5*2,:9:92222,:::999,::9992=4=4wwww",
"wwwwXXq$*2,::992222,:::992,:9999==4=4wwww",
"wwwwwXq.5*@::992222,:::992,:999-=44=wwwww",
"wwwwwXX.@#$33<<2222,:::992,88--2=44=wwwww",
"wwwwwwXq.5+,,#<<222,::999238---2=44=wwwww",
"wwwwwwqq..q+$5##222,::8--=%888-22=wwwwwww",
"wwwwwwwwwwq++.@#*22@::---=%88-wwwwwwwwwww",
"wwwwwwwwwwwwq+.$5#*$33:--23wwwwwwwwwwwwww",
"wwwwwwwwwwwwww+.555$,3<9wwwwwwwwwwwwwwwww"
};
