/* XPM */
static char *King_B_wood[] = {
/* width height ncolors chars_per_pixel */
"41 43 30 1",
/* colors */
"  c #000000",
". c #D19849",
"X c #946A2E",
"o c #72361A",
"O c #5F301B",
"+ c #CF9239",
"@ c #E5A644",
"# c #F3B255",
"$ c #DB9F44",
"% c #F8B046",
"& c #FFC35D",
"* c #FABB58",
"= c #FFCD60",
"- c #FEC05B",
"; c #FFFF86",
": c #FEB140",
"> c #FFF47C",
", c #EAA940",
"< c #FBB754",
"1 c #5D391C",
"2 c #FEC264",
"3 c #F2AA41",
"4 c #FFE66E",
"5 c #E3AD59",
"6 c #803C19",
"7 c #562C1A",
"8 c #FFB542",
"9 c #FEB958",
"0 c #B5843B",
"q c None",
/* pixels */
"qqqqqqqqqqqqqqqqq.++,,,##23qqqqqqqqqqqqqq",
"qqqqqqqqqqqqqq...5+,,3##<2%88qqqqqqqqqqqq",
"qqqqqqqqqqq0+++$55$33<:<92%8==&qqqqqqqqqq",
"qqqqqqq0...++$@5#*@:::9992%8&&&&=8-qqqqqq",
"qqqqqX0+.55+,,##22,::9:9923888&&=8=qqqqqq",
"qqqqqX0.@#*@33<<22,::9:922,88---=8==qqqqq",
"qqqqqX0.#*2,::9222,::9:922,:999-=8=4qqqqq",
"qqqqXX0@#2,9::9222,:99:922,::999=8==>qqqq",
"qqqqXX.5*2,:999222,::9:922,9:99928==>qqqq",
"qqqqXX+522,:::9222,:99:922,9:9992%-=4qqqq",
"qqqqX0.#22,::99222,:99:922,::9992%-=4qqqq",
"qqqqX0+#22,::99222,::::922,:96692%-=4qqqq",
"qqqqX0+#22OO7OOOOO1111ooooo6oooo2%-=4qqqq",
"qqqqX0+#22,:9:9222,:11:922,::9922%-=4qqqq",
"qqqqX0.#22,:999222,:oo9922,::9922=8=4qqqq",
"qqqqX0$#2,,:::9222,:o6:992,::992228==>qqq",
"qqqXX0$#2,::999222,:o69922,9:992228=4>qqq",
"qqqXX.,#2,::9:9222,:669922,::99222%-=>qqq",
"qqqXX.5<2,::999222,:oo9922,::99222%-=4qqq",
"qqqXX.#<2,::999222,:66:922,9:99222%-=>qqq",
"qqqXX.#<2,:::99922,:66:92,::669222%-=>qqq",
"qqqXX+#22,:6666666666666666o666222%-=>qqq",
"qqqX0+#22,:::99222,:66:92,:::99222%8=4qqq",
"qqqX0$#22,::999222,:66:92,::9992223844>qq",
"qqXX0$#22,:9999222,:66:96,:::9922238=4>qq",
"qqXX.,#22,::999222,:Oo992oo::9922238-4>qq",
"qqXX.,<22,:::92222,:66992,6o:9922238-4>qq",
"qqX0.,<22,::999222,:o6999,ooo99222,8-4>qq",
"qqXX.,<22,:9992222,:oo922,:oo99922,8-4>qq",
"qqX0.3<22,:9999222,:oo922,::999222,88=4qq",
"qqX0$3<22,::999222,:o1922,:9999222,8844;q",
"q6X0@3<22,:9:92222,:oo999,::99O722,8==4;q",
"q6X.5#922666666666666666666666oo22,88-4;q",
"q6X+,3992,::992222,:::992,:9999222,88-4>q",
"q6X+#3992,::992222,:::992,::992222,88-4>q",
"q6X+,::92,::999222,::9992,:9992222,88-4>q",
"q6X.#::92,:9999222,:::992,:::92222,:8844q",
"qX0+#<:92,::999222,::9992,::992222,:8844;",
"qX0$3::92,::999222,:::992,:9992222,:8844>",
"XX0$3<:92,::::9222,::9992,::992222,:88=4;",
"XX+,#3:<2@:<<<<222@::<<<2@:<<<2222@:9-=4;",
"XX0@,33#*$333##***$3####*$333##***$33:=4>",
"0.+$,,,55$,,,55555$,5,555$,5555555$,539=4"
};
