/* XPM */
static char *Knight_B_wood[] = {
/* width height ncolors chars_per_pixel */
"37 38 30 1",
/* colors */
"  c #000000",
". c #D19849",
"X c #946A2E",
"o c #72361A",
"O c #5F301B",
"+ c #CF9239",
"@ c #E5A644",
"# c #F3B255",
"$ c #DB9F44",
"% c #F8B046",
"& c #FFC35D",
"* c #FABB58",
"= c #FFCD60",
"- c #FEC05B",
"; c #FEB140",
": c #FFF47C",
"> c #EAA940",
", c #FBB754",
"< c #5D391C",
"1 c #FEC264",
"2 c #F2AA41",
"3 c #FFE66E",
"4 c #E3AD59",
"5 c #803C19",
"6 c #562C1A",
"7 c #FFB542",
"8 c #FEB958",
"9 c #443115",
"0 c #B5843B",
"q c None",
/* pixels */
"qqqqqqqqqqqqqqq.+$>4>#11qqqqqqqqqqqqq",
"qqqqqqqqqqqq+..4+>>#2,1=%7qqqqqqqqqqq",
"qqqqqqqqqq++.444$2,,;81=777=qqqqqqqqq",
"qqqqqq0.0+..$4#*@;;8;81=%&7===3qqqqqq",
"qqqqqX0.+$@>#*11>;88;8112-7&==3qqqqqq",
"qqqqqX0.+22#,111>;88;811>77&==3=qqqqq",
"qqqqXX.4$2;,8111>;;;;811>;87&=3==qqqq",
"qqqqXX.4@;888111>;88;811>;88-=3=3qqqq",
"qqqqXX.4@;8;8111>;;8;811>;;88=3=3qqqq",
"qqqqX0.#@;666111>;;88ooo>;;88=3:=qqqq",
"qqqqX0.$@;oo8111>;;8;oo1>;;88=3:=qqqq",
"qqqqX0.$;;oo8111>;;;8oo1>8;88=3:=qqqq",
"qqqqX04$;;558111>;;88551>;558=3:=qqqq",
"qqqqX04$;;o<81o1oooooo<Oo<<oo1=3=3qqq",
"qqqXX055ooooo555>;;8;551>8;881=3=3qqq",
"qqqXX.4@;;558811>;;;;55>;;8881=3=3qqq",
"qqqXX.4@;;558111>;88855>;;;881=3=3qqq",
"qqqX0.#@;;558111>;;8;55>;;;551=3=3qqq",
"qqqX0.#@;555511555555555555555=3=3qqq",
"qqqX0.#@;5558oo1>;;8;81>;;;881=3=3qqq",
"qqqX04#@;5oo81Oo>;;8881>;;;881=3=3qqq",
"qqqX04*>555511oo>;;88555;;;8811=-=3qq",
"qqXX04*>5;oo8111>;;;8oo>;;;8811=-=3qq",
"qqXX.41>58551111>;;;8oo>;;88881=,=3qq",
"qqXX.41oo8oo8111>;;;8oo>;;O6811=7=3qq",
"qqXX.#1o;;oo811oooo<OOOO6666911=7=3qq",
"qqX0.#o>;8oo1111>;;;8o<>;;88811=7=3qq",
"qqX0$*1>;;551111>;;;855>;88881117==3q",
"qXX0@#1>;;<O1111>;;;866>;88881117==3q",
"qXX+4#1>;;oo1111>;;;855>;;881111%-=3q",
"qXX+>,1>;;558111>;;88oO>;8899111%-=3q",
"qX0+>,1>;8oo81ooooooo<<<<<OOOO11%-=3q",
"qX0.>,1>;;oo8111>;;8881>;;881111%7=3q",
"qX0+2,1>;;888111>;;;881>;888111127==:",
"qX0$2,1>;;;;8111>;;8881>;;88111127==:",
"XX+$2,1@;,,,,111@;;,,,1@;,,,1111>7=3:",
"X0+$>#*$222##***$2####*$222##***@;7=3",
"X0+$>44$>>>44444$>4>444$>4444444$2873"
};
