/* XPM */
static char *Knight_W_wood[] = {
/* width height ncolors chars_per_pixel */
"37 38 31 1",
/* colors */
"  c #000000",
". c #D19849",
"X c #946A2E",
"o c #72361A",
"O c #5F301B",
"+ c #CF9239",
"@ c #E5A644",
"# c #F3B255",
"$ c #DB9F44",
"% c #F8B046",
"& c #FFC35D",
"* c #FABB58",
"= c #FFCD60",
"- c #FEC05B",
"; c #FFFF86",
": c #FEB140",
"> c #FFF47C",
", c #EAA940",
"< c #FBB754",
"1 c #5D391C",
"2 c #FEC264",
"3 c #F2AA41",
"4 c #FFE66E",
"5 c #E3AD59",
"6 c #803C19",
"7 c #562C1A",
"8 c #FFB542",
"9 c #FEB958",
"0 c #443115",
"q c #B5843B",
"w c None",
/* pixels */
"q.+$,55555$,555555$,,,555$,,5555$3-=4",
"Xqq@,33#**$3#3#***$33###*$33###*@8=44",
"Xqq,3<<<22@:::<222@:::<<2@::<<<23844>",
"Xqq,3<:922,::9922,,:::992,::9992%8=4w",
"XXq$3<9922,::9922,:::9992,::9992%-=4w",
"wXq$3:9922,:::922,::9:9926699992%-=>w",
"wXX+3:96oooooooOOoooOOo92o699992%-=4w",
"wXX+,:99OO,::9oo2,::9:99217::992%-=4w",
"w6X+,39922,::9oo2,::9:922oo:99928==4w",
"w6X+,39922,::9oo2,::9:92266999928=44w",
"wXXq$3<92,9::9OO2,:99:922oo:999=8=4ww",
"wwXq$#<22,:999072,::9:922oo:996=8=4ww",
"wwXq.3<26ooooooo66666692266:9o9=8=4ww",
"wwXX.#<22O7:99772,:99:922OO:1O9=<=4ww",
"wwXX.,<22,::99662,::::92266969-=-=4ww",
"wwXX.,#22,:999OO2,:99:922o69o9-=-=4ww",
"wwXXq$#22,:9:7772,::91o22oooo9=4=4www",
"wwwXq$#22,:999222,::9oo22ooo99=4>=www",
"wwwXq+#2,,:::9222,::9:oo2ooo99=4>=www",
"wwwXq+#ooo6ooooooooo6o92oooo99=4>=www",
"wwwXq+#266:9:9662,::99922oo:99=4>=www",
"wwwXq.#2,::999oo2,:::9922o1:99=4>=www",
"wwwXX.52,::999662,::9:92266:9-=4>=www",
"wwwXX.52,:::99662,:::66666666664>=www",
"wwwXXq5*6666666666666962,6o:9-4>;wwww",
"wwwwXq5*,66:99oo2,::9:92,66:9&4>;wwww",
"wwwwXq5#@::999662,::9:92,6699&4>;wwww",
"wwwwXq.#@:9999oo2,::9:92,66:9&4>;wwww",
"wwwwXq.#@::99oOO2,::9992ooo:9&4>;wwww",
"wwwwXX.5@:::92222,::9992,:::9&4>;wwww",
"wwwwXX.5@::999222,:::999,:::-=4>;wwww",
"wwwwXXq5$3<992222,:::922,:89-=4>;wwww",
"wwwwwXq.+,#<<<222,:::922388-&=4>wwwww",
"wwwwwwqqq$,##<222,:::922%8&-&=4>wwwww",
"wwwwwwqqq+.$5#*22,::8---%88--&4wwwwww",
"wwwwwwwwwqq..5#*2@::8--=%8&wwwwwwwwww",
"wwwwwwwwwwwq+.55#$33:--=%wwwwwwwwwwww",
"wwwwwwwwwwwww..55$,339wwwwwwwwwwwwwww"
};
