/* XPM */
static char *Lance_B_wood[] = {
/* width height ncolors chars_per_pixel */
"37 38 29 1",
/* colors */
"  c #000000",
". c #D19849",
"X c #946A2E",
"o c #72361A",
"O c #5F301B",
"+ c #CF9239",
"@ c #E5A644",
"# c #F3B255",
"$ c #DB9F44",
"% c #F8B046",
"& c #FFC35D",
"* c #FABB58",
"= c #FFCD60",
"- c #FEC05B",
"; c #FEB140",
": c #FFF47C",
"> c #EAA940",
", c #FBB754",
"< c #5D391C",
"1 c #FEC264",
"2 c #F2AA41",
"3 c #FFE66E",
"4 c #E3AD59",
"5 c #803C19",
"6 c #562C1A",
"7 c #FFB542",
"8 c #FEB958",
"9 c #B5843B",
"0 c None",
/* pixels */
"000000000000000.+$>4>#110000000000000",
"000000000000+..4+>>#2,1=%700000000000",
"0000000000++.444$2,,;81=777=000000000",
"0000009.9+..$4#*@;;8;81=%&7===3000000",
"00000X9.+$@>#*11>;88;8112-7&==3000000",
"00000X9.+22#,111>;88;811>77&==3=00000",
"0000XX.4$2;,8111>;;;;811>;87&=3==0000",
"0000XX.4@;888111>;88;811>;88-=3=30000",
"0000XX.4@;8;8111>;;8;811>;;88=3=30000",
"0000X9.#@;888111>;;88811oo;88=3:=0000",
"0000X9.$@;;;8111>;;8;oooooo88=3:=0000",
"0000X9.$;;888111>oo5oooo>8;88=3:=0000",
"0000X94$5555555o55588811>;;88=3:=0000",
"0000X94$;;888111>oo;8811>;;881=3=3000",
"000XX94@;;888111>558;811>8;881=3=3000",
"000XX.4@;;;88811>55;;81>;;8551=3=3000",
"000XX.5555555555555555555o5555=3=3000",
"000X9.#@;;;881155558581>;;;881=3=3000",
"000X9.#@;;888155>558;51>;;8881=3=3000",
"000X9.#@;8888oo5>o58;855;;;881=3=3000",
"000X94#@;;88oOO1>oO8881oooo881=3=3000",
"000X94*>;;555111>558881>5o55o51=-=300",
"00XX94*>5oo88111>oo;888>;oooo11=-=300",
"00XX.4o5;88555ooooooooooo;8oo81=,=300",
"00XX.41>;88oo111>;;;811OO;88811=7=300",
"00XX.#1>;;8oo111>;;;811O6888811=7=300",
"00X9.#1>;8;oo111>;;;888O<;88811=7=300",
"00X9$*1>;;85555555555555588881117==30",
"0XX9@#1>;;8O<111>;;;8816688881117==30",
"0XX+4#1>;;8o5111>;;;88155;881111%-=30",
"0XX+>,1>;;85o111>;;8881O68881111%-=30",
"0X9+>,1>;88oooooooooo<<<<;;81111%-=30",
"0X9.>,1>;;8o5111>;;8881oo;881111%7=30",
"0X9+2,1>;;888111>;;;881>;888111127==:",
"0X9$2,1>;;;;8111>;;8881>;;88111127==:",
"XX+$2,1@;,,,,111@;;,,,1@;,,,1111>7=3:",
"X9+$>#*$222##***$2####*$222##***@;7=3",
"X9+$>44$>>>44444$>4>444$>4444444$2873"
};
