/* XPM */
static char *Lance_W_wood[] = {
/* width height ncolors chars_per_pixel */
"37 38 31 1",
/* colors */
"  c #000000",
". c #D19849",
"X c #946A2E",
"o c #72361A",
"O c #5F301B",
"+ c #CF9239",
"@ c #E5A644",
"# c #F3B255",
"$ c #DB9F44",
"% c #F8B046",
"& c #FFC35D",
"* c #FABB58",
"= c #FFCD60",
"- c #FEC05B",
"; c #FFFF86",
": c #FEB140",
"> c #FFF47C",
", c #EAA940",
"< c #FBB754",
"1 c #5D391C",
"2 c #FEC264",
"3 c #F2AA41",
"4 c #FFE66E",
"5 c #E3AD59",
"6 c #803C19",
"7 c #562C1A",
"8 c #FFB542",
"9 c #FEB958",
"0 c #443115",
"q c #B5843B",
"w c None",
/* pixels */
"q.+$,55555$,555555$,,,555$,,5555$3-=4",
"Xqq@,33#**$3#3#***$33###*$33###*@8=44",
"Xqq,3<<<22@:::<222@:::<<2@::<<<23844>",
"Xqq,3<:922,::9922,,:::992,::9992%8=4w",
"XXq$3<9922,::9922,:::9992,::9992%-=4w",
"wXq$3:9922,:66922,::9:9966:99992%-=>w",
"wXX+3:9922,:oooOOoooOOooOo:99992%-=4w",
"wXX+,:9922,:Oo922,::9:99O1:::992%-=4w",
"w6X+,39922,:oo922,::9:926o::99928==4w",
"w6X+,39922,:oo222,::9:9266:999928=44w",
"wXXq$3<92,9:OOOO1OOooooooo::999=8=4ww",
"wwXq$#<22,:970222,::9:926o9:999=8=4ww",
"wwXq.3<22,::oo222,:99:92669:999=8=4ww",
"wwXX.#<22,::77222,:99:92OO::999=<=4ww",
"wwXX.,<2o6::66666666666666:9:66=-=4ww",
"wwXX.,#2oOO799222,119:922,6oo9-=-=4ww",
"wwXXq$#7770079222,O19:92ooo:99=4=4www",
"wwwXq$#22,7777222,oo99ooo,::99=4>=www",
"wwwXq+#2,,:::oo22,oo9ooo2,::99=4>=www",
"wwwXq+#2,::9992o2,oo:oo22,9:99=4>=www",
"wwwXq+#2,::9:922o,6666922,::99=4>=www",
"wwwXq.#66ooo1Oooooooooo1Oo11ooo4>=www",
"wwwXX.526o:999222,669:922,9:9-=4>=www",
"wwwXX.52,:::99922,66::92,::99-=4>=www",
"wwwXXq5*,::9:9222,669992,:::9-4>;wwww",
"wwwwXq5*,:::99222,66666666666&4>;wwww",
"wwwwXq5#@::9966666669:92,::99&4>;wwww",
"wwwwXq.#@:6666oo2,::9:92,:::9&4>;wwww",
"wwwwXq.#@::oo9222,::9992,:::9&4>;wwww",
"wwwwXX.5@:::92222,::9992,:::9&4>;wwww",
"wwwwXX.5@::999222,:::999,:::-=4>;wwww",
"wwwwXXq5$3<992222,:::922,:89-=4>;wwww",
"wwwwwXq.+,#<<<222,:::922388-&=4>wwwww",
"wwwwwwqqq$,##<222,:::922%8&-&=4>wwwww",
"wwwwwwqqq+.$5#*22,::8---%88--&4wwwwww",
"wwwwwwwwwqq..5#*2@::8--=%8&wwwwwwwwww",
"wwwwwwwwwwwq+.55#$33:--=%wwwwwwwwwwww",
"wwwwwwwwwwwww..55$,339wwwwwwwwwwwwwww"
};
