/* XPM */
static char * num_8_xpm[] = {
"7 12 2 1",
" 	c None",
".	c #000000",
"  ...  ",
" ..... ",
"..   ..",
"..   ..",
"... ...",
" ..... ",
" ..... ",
"..   ..",
"..   ..",
"..   ..",
" ..... ",
"  ...  "};
