/* XPM */
static char * num_3_xpm[] = {
"8 12 2 1",
" 	c None",
".	c #000000",
"   ...  ",
"  ..... ",
" ..  .. ",
"     .. ",
"   .... ",
"   .... ",
"     ...",
"      ..",
"..    ..",
"...   ..",
" ...... ",
"  ....  "};
