/* XPM */
static char * num_6_xpm[] = {
"8 12 2 1",
" 	c None",
".	c #000000",
"    ..  ",
"   ...  ",
"   ..   ",
"  ...   ",
" ...... ",
" ...... ",
"...  ...",
"..    ..",
"..    ..",
"...   ..",
" ...... ",
"  ....  "};
