/* XPM */
static char * num_4_xpm[] = {
"8 12 2 1",
" 	c None",
".	c #000000",
"     .. ",
"    ... ",
"    ... ",
"   .... ",
"  .. .. ",
"  .. .. ",
" ..  .. ",
"..   .. ",
"........",
"........",
"     .. ",
"     .. "};
