/* XPM */
static char * num_1_xpm[] = {
"4 12 2 1",
" 	c None",
".	c #000000",
"....",
"....",
"  ..",
"  ..",
"  ..",
"  ..",
"  ..",
"  ..",
"  ..",
"  ..",
"  ..",
"  .."};
