/* XPM */
static char * num_2_xpm[] = {
"7 12 2 1",
" 	c None",
".	c #000000",
" ....  ",
"...... ",
"..   ..",
"..   ..",
"     ..",
"    ...",
"   ... ",
"  ...  ",
" ...   ",
"...    ",
".......",
"......."};
