/* XPM */
static char * num_7_xpm[] = {
"7 12 2 1",
" 	c None",
".	c #000000",
".......",
".......",
"     ..",
"    .. ",
"    .. ",
"   ..  ",
"   ..  ",
"  ...  ",
"  ..   ",
" ...   ",
" ..    ",
"...    "};
