/* XPM */
static char *Dragon_Horse_W_wood[] = {
/* width height ncolors chars_per_pixel */
"41 42 26 1",
/* colors */
"  c #000000",
". c #D19849",
"X c #946A2E",
"o c #CF9239",
"O c #CA0D0D",
"+ c #E5A644",
"@ c #F3B255",
"# c #DB9F44",
"$ c #F8B046",
"% c #FABB58",
"& c #FFCD60",
"* c #FEC05B",
"= c #FFFF86",
"- c #FEB140",
"; c #FFF47C",
": c #EAA940",
"> c #FBB754",
", c #FEC264",
"< c #F2AA41",
"1 c #FFE66E",
"2 c #E3AD59",
"3 c #803C19",
"4 c #FFB542",
"5 c #FEB958",
"6 c #B5843B",
"7 c None",
/* pixels */
"66.2o::22222#:222222#:::222#::2222#:@@*11",
"X6.2#<<<<@%%#<@<@%%%#<<@@@%#<<@@@%#<@*&;;",
"X6.2+-->>>,,+--->,,,+--->>,+-->>>,+-5&1;=",
"XX.2+--5-5,,:--55,,::---55,:--555,:-441=7",
"XX.2+--555,,:--55,,:---555,:--555,:44*1=7",
"7X62#---55,,:---5,,:--5-55,:-5555,:44&1;7",
"7X62#---55,,:-5-5,,:---555,:-5555,:44*1=7",
"7X6.#---55,,:--55,,:--5-55,:---55,:44*1=7",
"7X66:<--55,,:-OO5,,:--5-5,,:--555,:44*1=7",
"7X66:<--55,,:OOOOO,:--5-5,,:-55OO,:4&&1;7",
"7XXo:<--55,:OOO5,,,:-55-OO,:--OOO,:4411;7",
"7XX6#@>55,,:OO55,,,:OO5-OO,:5-OO5,:441177",
"77X6#<>-5,,OOO-5OO,:OO5-OO,:5OO55,:4*&;77",
"77X6o<>55,,OO-55OO,:-O5-5O,:-O555,:4*&;77",
"773Xo:>-5,,OO-55,O,:--O-5,O:-O-55,<4*&;77",
"773Xo@>-5,,OO555,,O:-55-5,,:-5555,<4*&;77",
"773Xo:>-5,,OO5-5,,,:--5-5,,OO-55,,<4&&;77",
"773Xo:@55,OOOOOOOOOOOOOOOOOOO-55,,,4&1177",
"773X6#@-5,:OO--5,,,:OO5-55,OO-55,,&4&1777",
"777X6#@-5,:--555,,,:OO-55,,OO-55,,&4&;777",
"777X6o@-5,:--5-5,,,:OO555,,OO-55,,&4&1777",
"777XXo@>5,:--OOOOOOOOOOOOOOOO-55,,&4&1777",
"777XXo@>5,:--5OO,,,:OO5-5,,OO-55,,&>&1777",
"777XXo@>5,:---555,,:OO--5,:OO555,,&>&1777",
"777XXo:>,,:--5-5,,,:OO555,:OO-55,,&*&1777",
"777XXo:@,,:--OOOOOOOOOOOOOOOO-55,,&*&1777",
"777XX6#@,,:--5OO,,,:OO5-5,:OO555,&1&17777",
"7777X6#@,,:-5555,,,:OO5-5,:OO-55,&1&17777",
"7777X6o@,,:--555,,,:OO555,:OO-55,&1&17777",
"7777X6o@,,:-OOOOOOOOOOOOOOOOO-55,&1&17777",
"7777X6o@,,:--OO5,,,:---555:-O-55,&1&17777",
"7777X6o@,,:-555,,,,:---5,,:--5555&1&17777",
"7777XXo2,,:-5555,,,:---5,,:--555,&1&17777",
"7777XXo2%,:--555,,,:---5,,:-5555,&1&17777",
"7777XX6#%,:-5-5,,,,:---555:--555&&1&17777",
"77777X6.2%+--55,,,,:---55,:-555*&11&77777",
"77777XX.+@#<<>>,,,,:---55,:45***&11&77777",
"777777X6.2o::@>,,,,:---55,<44**,&11&77777",
"77777766..6o#2@@,,,:--5**&$4***,,&7777777",
"77777777776o..+@%,,+--4**&$44477777777777",
"7777777777776o.#2@%#<<5**,<77777777777777",
"77777777777777..222#:<<577777777777777777"
};
