/* XPM */
static char *Dragon_Horse_B_wood[] = {
/* width height ncolors chars_per_pixel */
"41 42 27 1",
/* colors */
"  c #000000",
". c #D19849",
"X c #946A2E",
"o c #CF9239",
"O c #CA0D0D",
"+ c #E5A644",
"@ c #F3B255",
"# c #DB9F44",
"$ c #F8B046",
"% c #FFC35D",
"& c #FABB58",
"* c #FFCD60",
"= c #FEC05B",
"- c #FFFF86",
"; c #FEB140",
": c #FFF47C",
"> c #EAA940",
", c #FBB754",
"< c #FEC264",
"1 c #F2AA41",
"2 c #FFE66E",
"3 c #E3AD59",
"4 c #803C19",
"5 c #FFB542",
"6 c #FEB958",
"7 c #B5843B",
"8 c None",
/* pixels */
"88888888888888888.o#>>3@@<188888888888888",
"88888888888888o..3o>>@1@,<$5*888888888888",
"888888888887o.o#33#11;,,6<$5**%8888888888",
"88888887...oo#+3@&+;;6;66<$555%%*5=888888",
"88888X7o.33o>>@@<<>;;6;6<<155%%%*5*888888",
"88888X7.+@&+11,<<<>;;6;6<<>56===*5*288888",
"88888X7.@&+,;;6<<<>;66;6<<>;;66=*5**88888",
"8888XX7+&<>;666<<<>;;6;6<<>6;666*5**:8888",
"8888XXo3&<>;;;6<<<>;66;6<<>6;666<5**28888",
"8888XX.3<<>;;66<<<>;66;6<<>;;666<$=*28888",
"8888X7o@<<>;;66<<<>;;;;6<<>;6;66<$=*28888",
"8888X7o@<<>;O66<<<>;66;6<<OO6666<$=*28888",
"8888X7o@<<>;OOOOOOOOOOOOOOOOO66<<$=*28888",
"8888X7.@<<>;OO6<<<>OO666<<>;;66<<*5*:8888",
"8888X7o@<>>;OO6<<<>OO6;66<>;;66<<*5*28888",
"8888X7#@<>;;OO6<<<>OO;66<OO6;66<<<5*2:888",
"888XX7#@<>;;OOOOOOOOOOOOOOOO;66<<<5**:888",
"888XX.3@<>;;OO6<<<>OO;66<<>;;66<<<$=*2888",
"888XX.3,<>;;OO6<<<>OO6;6<<>6;66<<<$=*:888",
"888XX.@,<>;;OO66<<>OO;;6<OO;666<<<$=*:888",
"888XXo@<<>;;OOOOOOOOOOOOOOOO;66<<<$=*:888",
"888XXo@<<>;;OO6<<<>OO6;6<>;;;66<<<$=*:888",
"888X7o@<<>;;OO6<<<>OO6;6<>;;666<<<$522888",
"888X7#@<<>;6OO6<<<>OO6;6<>;;OO6<<<15*2:88",
"88XX7#@<<>;;OOOOOOOOOOOOOOOOOOO<<<15*2:88",
"88XX.>@<<>;;OO<<<<>;;666<>;;OO6<<<15=2:88",
"88XX.>,<<>;;666<<<>;;;O66>;;OO6<<<15=2:88",
"88XX.>,<<>;O66O<<<O;;;6O<>;;OO66<<>5=2:88",
"88XX.>,<<>;O666O<<>O;;6OO>;;OO6<<<>5=*:88",
"88X7o1,<<>OO666OO<>OO;6OO>;OOO6<<<>552288",
"88X7#1,<<OO6;6<OO<>OO;666>;OO66<<<>5**2-8",
"84X7+@,<OOO;66<OO<>;;;66<>OOO66<<<>55*2-8",
"84Xo>166OO;;66<<<<>;;;6OOOOO666<<<>55=2:8",
"84Xo3166<>;;66<<<<>;;;66<OO;66<<<<>55=2:8",
"84Xo>1;6<>;;666<<<>;;666<>;666<<<<>55=2:8",
"84X.@;;6<>;6666<<<>;;;66<>;;;6<<<<>55=2:8",
"84Xo@,;6<>;;666<<<>;;666<>;;66<<<<>;55228",
"8X7o1;;6<>;;666<<<>;;;66<>;666<<<<>;5522:",
"8X7#1,;6<>;;;;6<<<>;;666<>;;66<<<<>;55*2-",
"XXo#@1;,<+;,,,,<<<+;;,,,<+;,,,<<<<+;6%*2-",
"XX7#>11@&#111@@&&&#1@@@@&#111@@&&&#11;*2:",
"777#>>>33#>>>33333#>3>333#>3333333#>316*2"
};
