/* XPM */
static char *P_Gold_W_wood[] = {
/* width height ncolors chars_per_pixel */
"41 40 27 1",
/* colors */
"  c #000000",
". c #D19849",
"X c #946A2E",
"o c #CF9239",
"O c #CA0D0D",
"+ c #E5A644",
"@ c #F3B255",
"# c #DB9F44",
"$ c #F8B046",
"% c #FFC35D",
"& c #FABB58",
"* c #FFCD60",
"= c #FEC05B",
"- c #FFFF86",
"; c #FEB140",
": c #FFF47C",
"> c #EAA940",
", c #FBB754",
"< c #FEC264",
"1 c #F2AA41",
"2 c #FFE66E",
"3 c #E3AD59",
"4 c #803C19",
"5 c #FFB542",
"6 c #FEB958",
"7 c #B5843B",
"8 c None",
/* pixels */
"77.3o>>33333#>333333#>>>333#>>3333#>@6*2:",
"8X73o1111@&&#1@1@&&&#11@@@&#11@@@&#16*2:8",
"8X7.#1;,,,<<+;;;,<<<+;;;,,<+;;,,,<>5**2-8",
"8X7.#1;6;6<<>;;66<<>>;;;66<>;;666<>55*288",
"8XX.o1;666<<>;;66<<>;;;666<>;;666<>5=*:88",
"88X7o1;;66<<>;;;6<<>;;6;66<>;6666<>5=2:88",
"88X7o1;;66<<>;6;6<<>;;;666<>;6666<>5=*:88",
"88X7o>;;66<<>;;66<<>;;6;66<>;;;66<15=*:88",
"88XXo>1;6OOOOOOOOOOOOOOOOOOOOOO66<15=*:88",
"88XXo>1;66OO>;;6<<<OO;6;6<<>;6666<152*:88",
"884Xo>1;66<>6;;6O<<OO66;OO<>;;666<15*2:88",
"884X7+@,6<<>;66O<<<OO;6;OO<>6;666<$5*2888",
"888X7#@;6<<>;;OO<<<OO66;OO<>6;666<$=*2888",
"888X7o@,6<<>;OO6<<<OO66;6OO>;;666<$=*2888",
"888XXo@;6<<>OOO6<<<OO;;;6<<O;6;66<$=*2888",
"888XX.316<<>;6O6<<<OO66;6<<>;6666<5**2888",
"888XXo316<<>;6;6<<<OO;6;6<<>;;66<<5**2888",
"888XX7+@,<<OOOOOOOOOOOOOOOOOO;66<*2*28888",
"8888X7#1,<>>OO;6<<<OO;6;66<>;;66<*2*28888",
"8888X7.1,<>;;666<<<OO;;66<<>6;OO<*2*28888",
"8888XX.>,OO;;6;6<<<OO;666<<>OO66<*2*28888",
"8888XX.@,OOOO66OOOOOOOOOO<<O;;66<*2*28888",
"8888XX.@,<OOOO66OO<>;;6;6OO>6;66<*2*28888",
"8888XX.3,<>;OOO66<<>;;;;OO>;;666<*2*28888",
"8888XXo3<<>;;6OO<<<>;66OO<>;;;66<*2*28888",
"8888XX7+&<>;;;6OO<<>;;OO6<>;;;66*2:*88888",
"88888X7#&<>;;666OO<>;OO;6<>;;666*2:*88888",
"88888X7.@<>;6666<O<>OO6;6<>;;;66*2:*88888",
"88888XX.@<>;;666<<O>OO666<>;;;66*2:*88888",
"88888XX.@<>;;;6<<<<OO;666<>;;;66*2:*88888",
"88888XX.3<>;;666<<<OO;;666>;;;66*2:*88888",
"88888XX.3&>;666<<<<>;;;6<<>;;66=*2:*88888",
"88888XX73&+;6666<<<>;;;6<<>;;66=*2:*88888",
"888888X7.3+;;666<<<>;;;6<<>;66=%2::888888",
"888888X7.3#1@1,<<<<>;;;666>55==%22:888888",
"888888877.o#>@@<<<<>;;;66<15==%%22:888888",
"888888877.7oo#3@&<<>;;5==*$5===%*88888888",
"88888888888oo..3@&<+;;5==*$55=88888888888",
"88888888888887o.33@#116==<188888888888888",
"888888888888888..33#>11688888888888888888"
};
