/* XPM */
static char *P_Gold_B_wood[] = {
/* width height ncolors chars_per_pixel */
"41 40 25 1",
/* colors */
"  c #000000",
". c #D19849",
"X c #946A2E",
"o c #CF9239",
"O c #CA0D0D",
"+ c #E5A644",
"@ c #F3B255",
"# c #DB9F44",
"$ c #F8B046",
"% c #FFC35D",
"& c #FABB58",
"* c #FFCD60",
"= c #FEC05B",
"- c #FEB140",
"; c #FFF47C",
": c #EAA940",
"> c #FBB754",
", c #FEC264",
"< c #F2AA41",
"1 c #FFE66E",
"2 c #E3AD59",
"3 c #FFB542",
"4 c #FEB958",
"5 c #B5843B",
"6 c None",
/* pixels */
"66666666666666666.o#::@@>,666666666666666",
"66666666666666...2o::@<>4*$36666666666666",
"666666666665oo.#22#<<>-4,*333%66666666666",
"666666665..oo#+2@&+--4-4,*$3%%%%*>6666666",
"666666X55.o+::@&,,:-44-4,,<33%%%1=6666666",
"666666X5.2#<@>>,,,:--4-4,,:43==*1**666666",
"666666X52@+---4,,,:-44-4,,:4-4=%1**666666",
"66666XX52&+--44,,,:-44-4,,:--44=1=*166666",
"66666XX.2&:--44,,,:----4,,:-4-4=*=*166666",
"66666XX.2,:-444,,,:-OO-4,,:-4444*>*166666",
"66666XX.@,:-4-4,,,:-OO-4,,:--44,*3*166666",
"66666X5.@,:-444,,,:OO4O4,,:--44,*1*166666",
"66666XX.@+:---4,,,:OO4-O4,:--44,*1*166666",
"66666X5.@+--444,,,OO--4OO,:4-44,*1*166666",
"66666X5#&:--4-4,,OO--444OO:--44,,*=*16666",
"6666XX5+&:--444,OO:---44,OO--44,,*=*16666",
"6666XX.2,:--444OO,:--4-4,,OOO44,,*>*16666",
"6666XX.2,:---4OO,,:----OO:-OOOO,,*>*16666",
"6666XX.@,:--4O4,OOOOOOOOOO--OOOO,*3*16666",
"6666XX.@,:-OO44,,,:-OO-4,:---4OO,*3*16666",
"6666XX.@,OO-444,,,:-OO-4,:--444,,*3*;6666",
"6666X5.@,:-4444,,,:-OO-4,:-OO44,,*3*16666",
"6666X5#&,:--OOOOOOOOOOOOOOOOOO4,,,3**;666",
"666XX5+&,:---4,,,,:-OO44,:---44,,,3**;666",
"666XXo2,,:--444,,,:-OO444:O--44,,,$=*;666",
"666X5o2,,:-44O,,,,:-OO4,,:OOO444,,$=*;666",
"666X5o@,,:-444OO,,:-OO4,,:OO444,,,$=*1666",
"666X5o@,,:--444OO,:-OO4,,OO4444,,,$3*1666",
"666X5#@,,:-4-4,OO,:-OO444O--444,,,<31*;66",
"66XX5+@,,:--44,OO,:-OO44O:-4444,,,<3**;66",
"66XXo:@4,:--44,,,,:-OO44,:-44OO,,,<3=*;66",
"66XX.:>4,:OOOOOOOOOOOOOOOOOOOOOO,,<3=*;66",
"66XXo:<4,:--444,,,:--444,:-444,,,,:3=*;66",
"66X5.:-4,:-4444,,,:---44,:---4,,,,:3=*;66",
"66XX.@-4,:--444,,,:--444,:--44,,,,:33*166",
"66X5o<-4,:--444,,,:---44,:-444,,,,:33*1;6",
"66X5#@-4,:----4,,,:--444,:--44,,,,:33*1;6",
"6XXo+<<>,+->>>>,,,+-->>>,+->>>,,,,+-=*116",
"6X5o#:<@&#<<<@@&&&#<@@@@&#<<<@@&&&#<-3*16",
"555o#::22#:::22222#:2:222#:2222222#:@-**1"
};
