/* XPM */
static char *Promoted_Knight_W_wood[] = {
/* width height ncolors chars_per_pixel */
"37 38 27 1",
/* colors */
"  c #000000",
". c #D19849",
"X c #946A2E",
"o c #CF9239",
"O c #CA0D0D",
"+ c #E5A644",
"@ c #F3B255",
"# c #DB9F44",
"$ c #F8B046",
"% c #FFC35D",
"& c #FABB58",
"* c #FFCD60",
"= c #FEC05B",
"- c #FFFF86",
"; c #FEB140",
": c #FFF47C",
"> c #EAA940",
", c #FBB754",
"< c #FEC264",
"1 c #F2AA41",
"2 c #FFE66E",
"3 c #E3AD59",
"4 c #803C19",
"5 c #FFB542",
"6 c #FEB958",
"7 c #B5843B",
"8 c None",
/* pixels */
"7.o#>33333#>333333#>>>333#>>3333#1=*2",
"X77+>11@&&#1@1@&&&#11@@@&#11@@@&+5*22",
"X77>1,,,<<+;;;,<<<+;;;,,<+;;,,,<1522:",
"X77>1,;6<<>;;66<<>>;;;66<>;;666<$5*28",
"XX7#1,66<<>;;66<<>;;;666OO;;666<$=*28",
"8X7#1;6OOOOOOOOOOOOO6;66OO;6666<$=*:8",
"8XXo1;66OO>;6OO<<>;;;666OO;6666<$=*28",
"8XXo>;66<<>;;OO<<>;;6;66OO;;;66<$=*28",
"84Xo>166<<>;;OO<<>;;6;6<OO;;666<5**28",
"84Xo>166<OOOOOOOOOO;6;6<OO;66O6<5*228",
"8XX7#1,6<>6;;OO<<>;66;6<OO;OO66*5*288",
"88X7#@,<<>;66OO<<>;;6;6<OO6O666*5*288",
"88X7.1,<<>;;OOO<<>;6OO6<OOOO666*5*288",
"88XX.@,<<>;;66<<<>;66OO<OOO;666*,*288",
"88XX.>,OOOOOOOOOOOOO;;6OOOO6;6=*=*288",
"88XX.>@<OO;66OO<<>;66;6<OO;666=*=*288",
"88XX7#@<<>;6;OO<<>;;6;6<OO;;66*2*2888",
"888X7#@<<>;66OO<<>;;OOOOOOOOOO*2:*888",
"888X7o@<>OOOOOOOOOO;6;66OO;;66*2:*888",
"888X7o@<>;;66OO<<>;;;66<OO6;66*2:*888",
"888X7o@<>;;6;OO<<>;;666<OO;;66*2:*888",
"888X7.@<>;;666<<<>;;;66<<>;;66*2:*888",
"888XX.3<>;;6OO<<<>;;6;6<<>O;6=*2:*888",
"888XX.3<>;;OO66<<>;;;;6<OO;66=*2:*888",
"888XX73&>;OO;6<OO>;6666OO;;;6=2:-8888",
"8888X73&>;OO66<OO>;;6;6OO;;;6%2:-8888",
"8888X73@+;OO66<OO>;OOOOOOOOOO%2:-8888",
"8888X7.@+;OO66<OO>;;6;6OO;;;6%2:-8888",
"8888X7.@+;OO66<OO>;;666OO;;;6%2:-8888",
"8888XX.3+;;;6<<<<>;;666<>;;;6%2:-8888",
"8888XX.3+;;666<<<>;;;666>;;;=*2:-8888",
"8888XX73#1,66<<<<>;;;6<<>;56=*2:-8888",
"88888X7.o>@,,,<<<>;;;6<<155=%*2:88888",
"888888777#>@@,<<<>;;;6<<$5%=%*2:88888",
"888888777o.#3@&<<>;;5===$55==%2888888",
"88888888877..3@&<+;;5==*$5%8888888888",
"888888888887o.33@#11;==*$888888888888",
"8888888888888..33#>116888888888888888"
};
