/* XPM */
static char *Promoted_Knight_B_wood[] = {
/* width height ncolors chars_per_pixel */
"37 38 25 1",
/* colors */
"  c #000000",
". c #D19849",
"X c #946A2E",
"o c #CF9239",
"O c #CA0D0D",
"+ c #E5A644",
"@ c #F3B255",
"# c #DB9F44",
"$ c #F8B046",
"% c #FFC35D",
"& c #FABB58",
"* c #FFCD60",
"= c #FEC05B",
"- c #FEB140",
"; c #FFF47C",
": c #EAA940",
"> c #FBB754",
", c #FEC264",
"< c #F2AA41",
"1 c #FFE66E",
"2 c #E3AD59",
"3 c #FFB542",
"4 c #FEB958",
"5 c #B5843B",
"6 c None",
/* pixels */
"666666666666666.o#:2:@,,6666666666666",
"666666666666o..2o::@<>,*$366666666666",
"6666666666oo.222#<>>-4,*333*666666666",
"6666665.5o..#2@&+--4-4,*$%3***1666666",
"66666X5.o#+:@&,,:-44-4,,<=3%**1666666",
"66666X5.o<<@>,,,:-44-4,,:33%**1*66666",
"6666XX.2#<->4,,,:----4,,:-43%*1**6666",
"6666XX.2+-444,,,:-44-4,,:-44=*1*16666",
"6666XX.2+-4-4,,,:--4-4,,:--44*1*16666",
"6666X5.@+-44OO,,:--4OO,,:OO44*1;*6666",
"6666X5.#+---OO,,:--4OO4,:OO44*1;*6666",
"6666X5.#OOOOOOOOOO--OO,,:OO44*1;*6666",
"6666X52#--4-OO,,:--4OO,,:OO44*1;*6666",
"6666X52#--44OO,,:---OO,,:OO44,*1*1666",
"666XX52+--4OO,,,:--4-4,,OO-44,*1*1666",
"666XX.2+--O444,,:----4,OO-444,*1*1666",
"666XX.2+--4-4,,,:-4444,:---44,*1*1666",
"666X5.@+---OO,,,:--4-4OO---44,*1*1666",
"666X5.@+--4OO,,,:--4-4OO--444,*1*1666",
"666X5.@+-44OO,,,:-OOOOOOOOOO4,*1*1666",
"666X52@OOOOOOOOOO--444OO---44,*1*1666",
"666X52&:---OO,,,:--444OO---44,,*=*166",
"66XX52&:--4OO,,,:---44OO---OO,,*=*166",
"66XX.2,:-4OOOO,,:OOOOOOOOOOOOO,*>*166",
"66XX.2,:-4OOO,OO:---4,,:--444,,*3*166",
"66XX.@,:-OOOO,,OO---4,OOO4444,,*3*166",
"66X5.@,:-O-OO,,,:---44OO--444,,*3*166",
"66X5#&,:OO4OO,,,:---44OO-4444,,,3**16",
"6XX5+@,O--4OO,,,:-OOOOOOOOOO4,,,3**16",
"6XXo2@,:--4OO,,,:---44OO--44,,,,$=*16",
"6XXo:>,:--4OO,,,:--444OO-444,,,,$=*16",
"6X5o:>,:-44OO,,,:---44OO---OO,,,$=*16",
"6X5.:>,:--4OO,,,:OOOOOOOOOOOOO,,$3*16",
"6X5o<>,:--4OO,,,:---44,:-444,,,,<3**;",
"6X5#<>,:----4,,,:--444,:--44,,,,<3**;",
"XXo#<>,+->>>>,,,+-->>>,+->>>,,,,:3*1;",
"X5o#:@&#<<<@@&&&#<@@@@&#<<<@@&&&+-3*1",
"X5o#:22#:::22222#:2:222#:2222222#<431"
};
