/* XPM */
static char *Promoted_Lance_B_wood[] = {
/* width height ncolors chars_per_pixel */
"37 38 25 1",
/* colors */
"  c #000000",
". c #D19849",
"X c #946A2E",
"o c #CF9239",
"O c #CA0D0D",
"+ c #E5A644",
"@ c #F3B255",
"# c #DB9F44",
"$ c #F8B046",
"% c #FFC35D",
"& c #FABB58",
"* c #FFCD60",
"= c #FEC05B",
"- c #FEB140",
"; c #FFF47C",
": c #EAA940",
"> c #FBB754",
", c #FEC264",
"< c #F2AA41",
"1 c #FFE66E",
"2 c #E3AD59",
"3 c #FFB542",
"4 c #FEB958",
"5 c #B5843B",
"6 c None",
/* pixels */
"666666666666666.o#:2:@,,6666666666666",
"666666666666o..2o::@<>,*$366666666666",
"6666666666oo.222#<>>-4,*333*666666666",
"6666665.5o..#2@&+--4-4,*$%3***1666666",
"66666X5.o#+:@&,,:-44-4,,<=3%**1666666",
"66666X5.o<<@>,,,:-44-4,,:33%**1*66666",
"6666XX.2#<->4,,,:----4,,:-43%*1**6666",
"6666XX.2+-444,,,:-44-4,,:-44=*1*16666",
"6666XX.2+-4-4,,,:--4-4,,:--44*1*16666",
"6666X5.@+-444OO,:--44OO,:-OO4*1;*6666",
"6666X5.#+---4OO,:--4-OO,:-OO4*1;*6666",
"6666X5.#-OOOOOOOOOO-4OO,:4OO4*1;*6666",
"6666X52#--4-4OO,:--44OO,:-OO4*1;*6666",
"6666X52#--444OO,:---4OO,:-OO4,*1*1666",
"666XX52+--44OO,,:--4-4,,:OO44,*1*1666",
"666XX.2+---O44,,:----4,:OO444,*1*1666",
"666XX.2+--4-4,,,:-4444,:---44,*1*1666",
"666X5.@+---44,,,:--4-4,OOOO44,*1*1666",
"666X5.@+--444,,,:-OOOOOOOOO44,*1*1666",
"666X5.@+-OOOOOOOOOOO-4,:---44,*1*1666",
"666X52@+--444,,,:-OO44,:---44,*1*1666",
"666X52&:---4,,,,:-OO44,:---4OOO*=*166",
"66XX52&OOOOOOOOOOOOOOOOOOOOOOOO*=*166",
"66XX.2,:-444,,,OO-OO4,O:--4444,*>*166",
"66XX.2,:-4444,OOO-OO4,,OO-444,,*3*166",
"66XX.@,:--4OOO,,:-OO4,,:-OOOOOO*3*166",
"66X5.@,:-OOO,,,,:-OO444:--OOOOO*3*166",
"66X5#&,:--44OOOOOOOOOOOOOO444,,,3**16",
"6XX5+@,:--44OO,,:---44,:OO444,,,3**16",
"6XXo2@,:--44OO,,:---44,:OO44,,,,$=*16",
"6XXo:>,:--44OOOOOOOOOOOOOO44,,,,$=*16",
"6X5o:>,:-444OO,,:---44,:OO-4,,,,$=*16",
"6X5.:>,:--44OO,,:--444,:OO44,,,,$3*16",
"6X5o<>,:--44OOOOOOOOOOOOOO44,,,,<3**;",
"6X5#<>,:----OO,,:--444,:OO44,,,,<3**;",
"XXo#<>,+->>>>,,,+-->>>,+->>>,,,,:3*1;",
"X5o#:@&#<<<@@&&&#<@@@@&#<<<@@&&&+-3*1",
"X5o#:22#:::22222#:2:222#:2222222#<431"
};
