/* XPM */
static char *Tokin_B_wood[] = {
/* width height ncolors chars_per_pixel */
"35 37 25 1",
/* colors */
"  c #000000",
". c #D19849",
"X c #946A2E",
"o c #CF9239",
"O c #CA0D0D",
"+ c #E5A644",
"@ c #F3B255",
"# c #DB9F44",
"$ c #F8B046",
"% c #FFC35D",
"& c #FABB58",
"* c #FFCD60",
"= c #FEC05B",
"- c #FEB140",
"; c #FFF47C",
": c #EAA940",
"> c #FBB754",
", c #FEC264",
"< c #F2AA41",
"1 c #FFE66E",
"2 c #E3AD59",
"3 c #FFB542",
"4 c #FEB958",
"5 c #B5843B",
"6 c None",
/* pixels */
"6666666666666666o#@-666666666666666",
"6666666666666..5o2@3=,,666666666666",
"666666666.....2o:<43=**$=3666666666",
"66666655oo#+222#<>43=**$=3%**666666",
"6666X555#:@@&&&+-44-4,,<33%**;66666",
"6666X5.o:<@>,,,:----4,,<3=3*1;66666",
"6666X5.o<>>4,,,:-44-4,,:-4=**;*6666",
"6666X5.#<4-4,,,:--4-4,,:--=%1;*6666",
"6666X52#-444,OO:--444,,:--4=11;*666",
"6666X5o#---4,,OO--4-44,:--4=*1;*666",
"666XX.o<-444,,OOO--44,,:4-44*1;*666",
"666XX.o<-4-4,,OO--444,,:--44*1;*666",
"666XX.#<-444,,OO---44,,:--44*1;*666",
"666X5.#<-444,,OO--4-4,,:4-44*1;*666",
"666X5.#---444,,O----4,:--444*1;*666",
"666X52#--4-4,,,O-4444,OOO-44*1;*666",
"666X52#---44,,,O--4-OOOOO-44,*1*166",
"66XX.2+--444,,,O--OOOOO--444,*1*166",
"66XX.2+-4444,,,:OOOO4,:---44,*1*166",
"66XX.2+--444,,,OOO444,:---44,*1*166",
"66X5.@+---4,,,OO--444,:---44,*1*166",
"66X5.@+--444,OO:---444:---44,*1*166",
"66X5.@+-444,OO,:---4,,:--4444*1*166",
"66X5.@+-4444O,,:---4,,:--444,*1*166",
"66X52@+--44O,,,:---4,,:-4444,,*=*16",
"66X52&:-4-4O,,,:---444:--444,,*=*;6",
"6XX52&:--44O,,,:---44,:-4444,,*>*16",
"6XX.2,:--44,O,,:---44,:OOO44,,*3*16",
"6XX.2,:--44,,OOOOOOOOOOOOO4,,,*3*16",
"6XXo@,:--444,,,OOOOOOOOO444,,,*3*16",
"6XXo@,:-4444,,,:---44,:---4,,,*3*16",
"6X5o@,:--444,,,:--444,:--44,,,,3**1",
"6X5o@,:--444,,,:---44,:-444,,,,3**1",
"6X5#@,:----4,,,:--444,:--44,,,,$=*1",
"XXo#@,+->>>>,,,+-->>>,+->>>,,,,$=1;",
"X5o#@&#<<<@@&&&#<@@@@&#<<<@@&&&:3**",
"55o#22#:::22222#:2:222#:2222222#3**"
};
