/* XPM */
static char *Tokin_W_wood[] = {
/* width height ncolors chars_per_pixel */
"35 37 25 1",
/* colors */
"  c #000000",
". c #D19849",
"X c #946A2E",
"o c #CF9239",
"O c #CA0D0D",
"+ c #E5A644",
"@ c #F3B255",
"# c #DB9F44",
"$ c #FFC35D",
"% c #FABB58",
"& c #FFCD60",
"* c #FEC05B",
"= c #FFFF86",
"- c #FEB140",
"; c #FFF47C",
": c #EAA940",
"> c #FBB754",
", c #FEC264",
"< c #F2AA41",
"1 c #FFE66E",
"2 c #E3AD59",
"3 c #FFB542",
"4 c #FEB958",
"5 c #B5843B",
"6 c None",
/* pixels */
"55o#22222#:222222#:::222#::222@+3&1",
"XXo::<@%%#<@<@%%%#<<@@@%#<<@@@,<311",
"XXo:@>>,,+--->,,,+--->>,+-->>>,3&1;",
"XXo:>-4,,:--44,,::---44,:--444&3&16",
"XXo:@44,,:--44,,:---444,:--444&3&16",
"XX5#<>4,,:---4,,:--4-44,:-4444&3&16",
"6X5#<>4,,:-4-4,,:---444,:-4444&3&16",
"6X5o<>4,,:-OOOOOOOOO-44,:---44&>&16",
"6XXo:>4,,OOOOOOOOOOOOO,,:--444&>&16",
"6XXo:>4,,OOO4,,,:--4-4O,:-444*&*&;6",
"6XXo:>4,:4--4,,,:-44-4,O:--44*&*&16",
"6XX.2@,,:-444,,,:--4-4,O:4-44*1&166",
"6XX5#@,,:---4,,,:-44-4,O:4-44$1&166",
"66X5#@,,:--44,,,:-44-4O,:--44$1&166",
"66X5o@,,:--44,,,:----OO,:-4-4$1&166",
"66X5o@,,:-444,,,:-44OO,,:-444$1&166",
"66X5o@,,:-4-4,,,:--OO4,,:--44&1&166",
"66X5.@,,:-444,,,:OOO44,,:--44&1;&66",
"66XXo2,::---4,,OOOO4-44,:--4*&1;&66",
"66XXo2,:--44OOOOO--O44,,:4-4*&1;&66",
"66XX5+%:--OOOOO,:--O44,,:--4*1;=666",
"666X5#%:--OOO,,,:--O44,,:--4$1;=666",
"666X5.@+--444,,,:--O-4,,:4-4$1;=666",
"666X5.@+---444,,:--OO4,:--44$1;=666",
"666X5.@+--4-4,,,:-4OO4,:---4$1;=666",
"666X5.@+---44,,,:--OO4,:---*&1;=666",
"666XX.2+--444,,,:-OOO4,:--4*&1;=666",
"666XX.2+-4444,,,:--OO4,:---*&;=6666",
"666XX52#--444,,,:--4OO,:--3$&;=6666",
"6666X5.#<--4,,,,:--444,:--3$&;=6666",
"6666X5.o<<>44,,,:---444:-33$&;=6666",
"66666X5o:@@>,,,,:---4,,:33*&&1;6666",
"66666X55o+2@@%,,:--34,,<33$&&1;6666",
"66666655oo##+2@%+-33*&,<3**$&666666",
"666666666.o..222#-33***:-3666666666",
"666666666666...2o<33**6666666666666",
"666666666666666.o<-6666666666666666"
};
