/* XPM */
static char *Dragon_King_W_wood[] = {
/* width height ncolors chars_per_pixel */
"41 42 26 1",
/* colors */
"  c #000000",
". c #D19849",
"X c #946A2E",
"o c #CF9239",
"O c #CA0D0D",
"+ c #E5A644",
"@ c #F3B255",
"# c #DB9F44",
"$ c #F8B046",
"% c #FABB58",
"& c #FFCD60",
"* c #FEC05B",
"= c #FFFF86",
"- c #FEB140",
"; c #FFF47C",
": c #EAA940",
"> c #FBB754",
", c #FEC264",
"< c #F2AA41",
"1 c #FFE66E",
"2 c #E3AD59",
"3 c #803C19",
"4 c #FFB542",
"5 c #FEB958",
"6 c #B5843B",
"7 c None",
/* pixels */
"66.2o::22222#:222222#:::222#::2222#:@@*11",
"X6.2#<<<<@%%#<@<@%%%#<<@@@%#<<@@@%#<@*&;;",
"X6.2+-->>>,,+--->,,,+--->>,+-->>>,+-5&1;=",
"XX.2+--5-5,,:--55,,::---55,:--555,:-441=7",
"XX.2+--555,,:--55,,:---555,:--555,:44*1=7",
"7X62#---55,,:---5,,:--5-55,:-5555,:44&1;7",
"7X62#---55,,:-5-5,,:---555,:-5555,:44*1=7",
"7X6.#---55,,:--55,,:--5-55,:---55,:44*1=7",
"7X66:<--55OOOOOOOOOOO-5-5,,:--555,:44*1=7",
"7X66:<--5OOOOOOOOOOOOO5-5,,:-5555,:4&&1;7",
"7XXo:<--5OO:5--5,,,:OO5-5,,:--555,:4411;7",
"7XX6#@>55,O:-555,,,:OO5-5,,OO-555,:441177",
"77X6#<>-5,O:-OO5,,,:OO5-5,,OO-555,:4*&;77",
"77X6o<>55,O:-OOOOOOOOOOOOOOOO-555,:4*&;77",
"773Xo:>-5,,:-OO5,,,:OO--5,,OO5-55,<4*&;77",
"773Xo@>-5,,:-OO5,,,:OO5-5,,OO5555,<4*&;77",
"773Xo:>-5,,:-OO5,,,:OO5-5,,OO-55,,<4&&;77",
"773Xo:@55,,:-OOOOOOOOOOOOOOOO-55,,,4&1177",
"773X6#@-5,::-OO5,,,:OO5-55,OO-55,,&4&1777",
"777X6#@-5,:--OO5,,,:OO-55,,OO-55,,&4&;777",
"777X6o@-5,:-OOOOOOOOOOOOOOOOO-55,,&4&1777",
"777XXo@>5,:--OO5,,,:---55,,:O-55,,&4&1777",
"777XXo@>5,:--555,,,:--5-5,,:5-55,,&>&1777",
"777XXo@>5OOOOOOOOOOOOOOOOOOOOOOO,,&>&1777",
"777XXo:>,,OO-5-5,,O:-55OO,:---55,,&*&1777",
"777XXo:@,,:---55OO,:--5OO,:---55,,&*&1777",
"777XX6#@,,:--55OOO,:--5-OO:--555,&1&17777",
"7777X6#@,,:-5555,O,:--5-5,O---55,&1&17777",
"7777X6o@,,:OOOOOOOOOOOOOOOOOOOO5,&1&17777",
"7777X6o@,,:-OO5,,,,:OO555,:---55,&1&17777",
"7777X6o@,,:--555,,,:OO-555:---55,&1&17777",
"7777X6o@,,:-555,,,,OOO-5,,:--5555&1&17777",
"7777XXo2,,:-5555,,,:---5,,:--555,&1&17777",
"7777XXo2%,:--555,,,:---5,,:-5555,&1&17777",
"7777XX6#%,:-5-5,,,,:---555:--555&&1&17777",
"77777X6.2%+--55,,,,:---55,:-555*&11&77777",
"77777XX.+@#<<>>,,,,:---55,:45***&11&77777",
"777777X6.2o::@>,,,,:---55,<44**,&11&77777",
"77777766..6o#2@@,,,:--5**&$4***,,&7777777",
"77777777776o..+@%,,+--4**&$44477777777777",
"7777777777776o.#2@%#<<5**,<77777777777777",
"77777777777777..222#:<<577777777777777777"
};
