/* XPM */
static char *promoted_silver_W_wood[] = {
/* width height ncolors chars_per_pixel */
"39 40 27 1",
/* colors */
"  c #000000",
". c #D19849",
"X c #946A2E",
"o c #CF9239",
"O c #CA0D0D",
"+ c #E5A644",
"@ c #F3B255",
"# c #DB9F44",
"$ c #F8B046",
"% c #FFC35D",
"& c #FABB58",
"* c #FFCD60",
"= c #FEC05B",
"- c #FFFF86",
"; c #FEB140",
": c #FFF47C",
"> c #EAA940",
", c #FBB754",
"< c #FEC264",
"1 c #F2AA41",
"2 c #FFE66E",
"3 c #E3AD59",
"4 c #803C19",
"5 c #FFB542",
"6 c #FEB958",
"7 c #B5843B",
"8 c None",
/* pixels */
"77.o>>33333#>333333#>>>333#>>3333#>@=*2",
"X7.o>111@&&#1@1@&&&#11@@@&#11@@@&#1=*2:",
"X7.#1;,,,<<+;;;,<<<+;;;,,<+;;,,,<>5*22-",
"X7.o1;6;6<<>;;66<<>>;;;66<>;;666<>55*28",
"XX.o1;666<<>;;66<<>;;;666<>;;666<>5=*:8",
"8X7o1;;66OO>;;;6<<>;O6;66<>;6O66<>5=2:8",
"8X7o1;;66OOO;6;6<<OOO;666<>OOO66<>5=*:8",
"8X7o>;;6OOOOO;66OOOOO6;66OOOOOO6<15=*:8",
"8XXo>1;66<<OOO6O<<OO;6OOOOO;;666<15=*:8",
"8XXo>1;66<<>;O6<<<OO;6;6OOO;OO66<152*:8",
"84Xo>1;66<>6;OO<<<OO66;O<OO;OO66<15*2:8",
"84X7+@,6<OOOO6O<<<OO;OOO<OO6;OO6<$5*288",
"88X7#@;6OOO;;;6O<<OO66;O<OO6;666<$=*288",
"88X7o@,6<<>;;66O<<OO66;6<OO;;666<$=*288",
"88XXo@;6<<OO;66O<<OO;OOOOOOOOOO6<$=*288",
"88XX.316<<OOOOOOOOOO66;6<OO;666O<5**288",
"88XXo316<<OO6;6<<<OO;6;6<OO;;6O<<5**288",
"88XX7+@,<<OO666<<<OO;6OOOOOOOO6<*2*2888",
"888X7#1,<>OOOOOOOOOO;6;66<>;O66<*2*2888",
"888X7.1,<>OO666<<<OO;OO6<<>OO66<*2*2888",
"888XX.>,<>OO6;6<<<OO;OOO<<OO;66<*2*2888",
"888XX.@,<OOOOOOOOOOO;;66O<OO;66<*2*2888",
"888XX.@,<>OO666<<<>O;6;6<OO6;66<*2*2888",
"888XX.3,<>;;;666<<>;;;;6<OO;666<*2*2888",
"888XXo3<<>;;6OO<<<>;6666<>;O;66<*2*2888",
"888XX7+&<>;;OO6<<<>;;6;6<OO;;66*2:*8888",
"8888X7#&<>;OO66<OO>;;6;6OO;;666*2:*8888",
"8888X7.@<>;OO66<OO>;;6;6OO;;;66*2:*8888",
"8888XX.@<>;OO66<OO>;OOOOOOOOOO6*2:*8888",
"8888XX.@<>;OO6<<OO>;;666OO;;;66*2:*8888",
"8888XX.3<>;OO66<OO>;;;66OO;;;66*2:*8888",
"8888XX.3&>;666<<<<>;;;6<<>;;66=*2:*8888",
"8888XX73&+;6666<<<>;;;6<<>;;66=*2:*8888",
"88888X7.3+;;666<<<>;;;6<<>;66=%2::88888",
"88888X7.3#1@1,<<<<>;;;666>55==%22:88888",
"88888877.o#>@@<<<<>;;;66<15==%%22:88888",
"88888877.7oo#3@&<<>;;5==*$5===%*8888888",
"8888888888oo..3@&<+;;5==*$55=8888888888",
"8888888888887o.33@#116==<18888888888888",
"88888888888888..33#>1168888888888888888"
};
