/* XPM */
static char *promoted_silver_B_wood[] = {
/* width height ncolors chars_per_pixel */
"39 40 25 1",
/* colors */
"  c #000000",
". c #D19849",
"X c #946A2E",
"o c #CF9239",
"O c #CA0D0D",
"+ c #E5A644",
"@ c #F3B255",
"# c #DB9F44",
"$ c #F8B046",
"% c #FFC35D",
"& c #FABB58",
"* c #FFCD60",
"= c #FEC05B",
"- c #FEB140",
"; c #FFF47C",
": c #EAA940",
"> c #FBB754",
", c #FEC264",
"< c #F2AA41",
"1 c #FFE66E",
"2 c #E3AD59",
"3 c #FFB542",
"4 c #FEB958",
"5 c #B5843B",
"6 c None",
/* pixels */
"6666666666666666.o#::@@>,66666666666666",
"6666666666666...2o::@<>4*$3666666666666",
"66666666665oo.#22#<<>-4,*333%6666666666",
"66666665..oo#+2@&+--4-4,*$3%%%%*>666666",
"66666X55.o+::@&,,:-44-4,,<33%%%1=666666",
"66666X5.2#<@>>,,,:--4-4,,:43==*1**66666",
"66666X52@+---4,,,:-44-4,,:4-4=%1**66666",
"6666XX52&+--44,,,:-44-4,,:--44=1=*16666",
"6666XX.2&:--44,,,:----4,,:-4-4=*=*16666",
"6666XX.2,:-44OO,,:-44OO,,:OO444*>*16666",
"6666XX.@,:-4-OO,,:--4OO,,:OO44,*3*16666",
"6666X5.@,OOOOOOOOOO-4OO,,:OO44,*1*16666",
"6666XX.@+:---OO,,:--4OO4,:OO44,*1*16666",
"6666X5.@+--44OO,,:---OO,,:OO44,*1*16666",
"6666X5#&:--4OO,,,:--444,,OO-44,,*=*1666",
"666XX5+&:--O44,,,:---44,OO--44,,*=*1666",
"666XX.2,:--4OO,,,:--4-4,,:4-44,,*>*1666",
"666XX.2,:---OO4,,:-O--4,:--OO4,,*>*1666",
"666XX.@,:--OO4O,,:-OOOOOOOOOOO,,*3*1666",
"666XX.@,:--OO4,OOO-OO-4,:--OO4,,*3*1666",
"666XX.@,:-OO44,,OO-OO-4,:--OO4,,*3*;666",
"666X5.@,:-O444,,,:-OOOOOOOOOO4,,*3*1666",
"666X5#&,:OOOOOOOO:-OO44,:--OO4,,,3**;66",
"66XX5+&,O---OO,,,:-OO44,:--OO4,,,3**;66",
"66XXo2,O:--4OO,,,:-OOOOOOOOOO4,,,$=*;66",
"66X5o2,,OOOOOOOOOO-OO4,O:--OO44,,$=*;66",
"66X5o@,,:-44OO,,,:-OO4,O:--444,,,$=*166",
"66X5o@,,:--4OO,O,:-OO4,O:-44OOO,,$3*166",
"66X5#@,,OO4-OO,OOO-OO444O-OOOO,,,<31*;6",
"6XX5+@,,:OO4OO,O,:-OO44,OO4444,,,<3**;6",
"6XXo:@4,:OO4OOO,,:-OO44,:O4444,,,<3=*;6",
"6XX.:>4,:--4OOOOO:-OO44O:OOO4,,,,<3=*;6",
"6XXo:<4,OOOOOO,,,:OOOOO,:-OOOOO,,:3=*;6",
"6X5.:-4,:OOO44,,,:OOO44,:--OOO,,,:3=*;6",
"6XX.@-4,:O-444,,,:O-444,:--4OO,,,:33*16",
"6X5o<-4,:--444,,,:---44,:-444,,,,:33*1;",
"6X5#@-4,:----4,,,:--444,:--44,,,,:33*1;",
"XXo+<<>,+->>>>,,,+-->>>,+->>>,,,,+-%*1;",
"XXo#:<@&#<<<@@&&&#<@@@@&#<<<@@&&&#<-311",
"55o#::22#:::22222#:2:222#:2222222#:@3*1"
};
