/* XPM */
static char *Pawn_B_wood[] = {
/* width height ncolors chars_per_pixel */
"35 37 30 1",
/* colors */
"  c #000000",
". c #D19849",
"X c #946A2E",
"o c #72361A",
"O c #5F301B",
"+ c #CF9239",
"@ c #E5A644",
"# c #F3B255",
"$ c #DB9F44",
"% c #F8B046",
"& c #FFC35D",
"* c #FABB58",
"= c #FFCD60",
"- c #FEC05B",
"; c #FEB140",
": c #FFF47C",
"> c #EAA940",
", c #FBB754",
"< c #5D391C",
"1 c #FEC264",
"2 c #F2AA41",
"3 c #FFE66E",
"4 c #E3AD59",
"5 c #803C19",
"6 c #562C1A",
"7 c #FFB542",
"8 c #FEB958",
"9 c #443115",
"0 c #B5843B",
"q c None",
/* pixels */
"qqqqqqqqqqqqqqqq+$#;qqqqqqqqqqqqqqq",
"qqqqqqqqqqqqq..0+4#7-11qqqqqqqqqqqq",
"qqqqqqqqq.....4+>287-==%-7qqqqqqqqq",
"qqqqqq00++$@444$2,87-==%-7&==qqqqqq",
"qqqqX000$>##***@;88;811277&==:qqqqq",
"qqqqX0.+>2#,111>;;;;81127-7=3:qqqqq",
"qqqqX0.+2,,8111>;88;811>;8-==:=qqqq",
"qqqqX0.$28;8111>;;8;811>;;-&3:=qqqq",
"qqqqX04$;888111>;;88811>;;8-33:=qqq",
"qqqqX0+$;;;8111>oo5;881>;;8-=3:=qqq",
"qqqXX.+2;888111>oo;8811>8;88=3:=qqq",
"qqqXX.+2;855511>5588811>;;88=3:=qqq",
"qqqXX.$2;8<O111>oo;8811o<;88=3:=qqq",
"qqqX0.$2;8oo111>555555555o88=3:=qqq",
"qqqX0.$;;;55811>55;;81>;;888=3:=qqq",
"qqqX04$;;855111>558881>;;;88=3:=qqq",
"qqqX04$;;;55111>558;81>;;;881=3=3qq",
"qqXX.4@;;855111>558;81>;;8551=3=3qq",
"qqXX.5555555oo55o555555555ooO=3=3qq",
"qqXX.4@;;888111>;;8881>;;;881=3=3qq",
"qqX0.#@;;;51111>555881>;;;881=3=3qq",
"qqX0.#@;;8o5511>oo;888oo;;881=3=3qq",
"qqX0.#@;8855111>oo;811>;oo888=3=3qq",
"qqX0.#@;8oo8111>oo;81o>;;O681=3=3qq",
"qqX04#@;;o88111>oo;81OO6866911=-=3q",
"qqX04*>;o;81111>oo;8o<O;;8OO11=-=:q",
"qXX04*>5;881155555;555>;888811=,=3q",
"qXX.41<;;881111OO;O<61>;888811=7=3q",
"qXX.41>;;881111>;55581>;;88111=7=3q",
"qXX+#1>;;888111>558881>;888111=7=3q",
"qXX+#1>;888811oo;;;881>;;;8111=7=3q",
"qX0+#1>;;885551>;;8881>;;8811117==3",
"qX0+#1>OO668111>;;;881>;88811117==3",
"qX0$#1>;;;;8111>;;8881>;;881111%-=3",
"XX+$#1@;,,,,111@;;,,,1@;,,,1111%-3:",
"X0+$#*$222##***$2####*$222##***>7==",
"00+$44$>>>44444$>4>444$>4444444$7=="
};
