/* XPM */
static char *Pawn_W_wood[] = {
/* width height ncolors chars_per_pixel */
"35 37 30 1",
/* colors */
"  c #000000",
". c #D19849",
"X c #946A2E",
"o c #72361A",
"O c #5F301B",
"+ c #CF9239",
"@ c #E5A644",
"# c #F3B255",
"$ c #DB9F44",
"% c #FFC35D",
"& c #FABB58",
"* c #FFCD60",
"= c #FEC05B",
"- c #FFFF86",
"; c #FEB140",
": c #FFF47C",
"> c #EAA940",
", c #FBB754",
"< c #5D391C",
"1 c #FEC264",
"2 c #F2AA41",
"3 c #FFE66E",
"4 c #E3AD59",
"5 c #803C19",
"6 c #562C1A",
"7 c #FFB542",
"8 c #FEB958",
"9 c #443115",
"0 c #B5843B",
"q c None",
/* pixels */
"00+$44444$>444444$>>>444$>>444#@7*3",
"XX+>>2#&&$2#2#&&&$22###&$22###12733",
"XX+>#,,11@;;;,111@;;;,,1@;;,,,17*3:",
"XX+>,;811>;;8811>>;;;881>;;888*7*3q",
"XX+>#8811>;;8811>;;;8881OOOO88*7*3q",
"XX0$2,811>;;;811>;;8;555>;8888*7*3q",
"qX0$2,811>;8;811>;;OO881>;8888*7*3q",
"qX0+2,811>;;8811>oo8;881>;;;88*,*3q",
"qXX+>,811>;;881ooo;8;811>;;888*,*3q",
"qXX+>,811>;;81ooo;oo;811>;88o=*=*:q",
"qXX+>,81>8;;8OO<>Ooooo11>;;o8=*=*3q",
"qXX.4#1O6;889961>oo8;811>8o88=3*3qq",
"qXX0$#15oo;ooo11>558;811>5;88%3*3qq",
"qqX0$#11O6;88611>668;811OO;88%3*3qq",
"qqX0+#11>5o88111>55;;8155;8;8%3*3qq",
"qqX0+#11>;8OO111><<8;8ooo;888%3*3qq",
"qqX0+#11>;8;81116O<8;811o;;88*3*3qq",
"qqX0.#11>;888111>;;88811>;;88*3:*qq",
"qqXX+4ooooooooooooo5ooooooo5553:*qq",
"qqXX+41oo;888111>oo;881oo8;8=*3:*qq",
"qqXX0@&>;;8;8111>558881oo;;8=3:-qqq",
"qqqX0$&>;;888111>oo;881Oo;;8%3:-qqq",
"qqqX0.#@;;888111>558;81558;8%3:-qqq",
"qqqX0.#@;5555555555;;8155;88%3:-qqq",
"qqqX0.#@;;558111>55888155;;8%3:-qqq",
"qqqX0.#@;;;88111>558;8555;;=*3:-qqq",
"qqqXX.4@;;888111>558;81>;;8=*3:-qqq",
"qqqXX.4@;88881115o58;81>;;;=*:-qqqq",
"qqqXX04$;;888111>;;8881>;;7%*:-qqqq",
"qqqqX0.$2;;81111>;;8881>;;7%*:-qqqq",
"qqqqX0.+22,88111>;;;888>;77%*:-qqqq",
"qqqqqX0+>##,1111>;;;811>77=**3:qqqq",
"qqqqqX00+@4##&11>;;7811277%**3:qqqq",
"qqqqqq00++$$@4#&@;77=*127==%*qqqqqq",
"qqqqqqqqq.+..444$;77===>;7qqqqqqqqq",
"qqqqqqqqqqqq...4+277==qqqqqqqqqqqqq",
"qqqqqqqqqqqqqqq.+2;qqqqqqqqqqqqqqqq"
};
