/* XPM */
static char *Rook_B_wood[] = {
/* width height ncolors chars_per_pixel */
"41 42 31 1",
/* colors */
"  c #000000",
". c #D19849",
"X c #946A2E",
"o c #72361A",
"O c #5F301B",
"+ c #CF9239",
"@ c #E5A644",
"# c #F3B255",
"$ c #DB9F44",
"% c #F8B046",
"& c #FFC35D",
"* c #FABB58",
"= c #FFCD60",
"- c #FEC05B",
"; c #FFFF86",
": c #FEB140",
"> c #FFF47C",
", c #EAA940",
"< c #FBB754",
"1 c #5D391C",
"2 c #FEC264",
"3 c #F2AA41",
"4 c #FFE66E",
"5 c #E3AD59",
"6 c #803C19",
"7 c #562C1A",
"8 c #FFB542",
"9 c #FEB958",
"0 c #443115",
"q c #B5843B",
"w c None",
/* pixels */
"wwwwwwwwwwwwwwwww.+$,,5##23wwwwwwwwwwwwww",
"wwwwwwwwwwwwww+..5+,,#3#<2%8=wwwwwwwwwwww",
"wwwwwwwwwwwq+.+$55$33:<<92%8==&wwwwwwwwww",
"wwwwwwwq...++$@5#*@::9:992%888&&=8-wwwwww",
"wwwwwXq+.55+,,##22,::9:922388&&&=8=wwwwww",
"wwwwwXq.@#*@33<222,::9:922,89---=8=4wwwww",
"wwwwwXq.#*@<::9222,:99:922,::99-=8==wwwww",
"wwwwXXq@*2,:999222,::9:922,9:999=8==>wwww",
"wwwwXX+5*2,:::9222,:99:922,9:99928==4wwww",
"wwwwXX.522,::99222,:99:922,::9992%-=4wwww",
"wwwwXq+#22,::99222,::::922,:9:992%-=4wwww",
"wwwwXq+#22,:999222,:99:9oo,:99992%-=4wwww",
"wwwwXq+#22,00777777O111oooo::o922%-=4wwww",
"wwwwXq.#22,:999222,::999oo,:ooo22=8=>wwww",
"wwwwXq+#2,,:::9222,:o6:9oooo:9922=8=4wwww",
"wwwwXq$#2,::9992oo,:o699oo,9oo92228=4>www",
"wwwXXq$#2,::9:966o6:66992oo::662228==>www",
"wwwXX.5#2,::91Ooo2,:oo992Oo::oo222%-=4www",
"wwwXX.5<2,ooo99662,:66:92266:99622%-=>www",
"wwwXX.#<2,:::99662,:66:92,:6699622%-=>www",
"wwwXX+#22,::9:9662,:66992,::666622%-=>www",
"wwwXX+#22,:::99oo2,:66:966:::66622%-=>www",
"wwwXq+#22666666666666666666:999622%844www",
"wwwXq$#22,:9999oo2,:66:966:::o922238=4>ww",
"wwXXq$#22,::999OO2,:Oo99oo::ooo22238=4>ww",
"wwXX.,#22,:::92oo2,:6699666o:9922238-4>ww",
"wwXX.,<22,::996622,:o6999o::oo922238-4>ww",
"wwXX.,<22,:9996622,:oo922oo:9oo922,8-4>ww",
"wwXX.,<22,:999oo22,:oo922,O:977222,8-=>ww",
"wwXq+3<22,::9oo222,:o1922,77999022,8844ww",
"wwXq$3<22,:9:oo222,:oo999,:1199722,8==4;w",
"w6Xq@#<22,::662222,:66992,:966oo22,88=4;w",
"w6X+,3992,:7192222,:OO992,:9977722,88-4>w",
"w6X+53992,::992222,:::992,::992222,88-4>w",
"w6X+,3:92,::999222,::9992,:9992222,88-4>w",
"w6X.#::92,:9999222,:::992,:::92222,88-4>w",
"w6X+#<:92,::999222,::9992,::992222,:8844w",
"wXq+3::92,::999222,:::992,:9992222,:8844>",
"wXq$3<:92,::::9222,::9992,::992222,:88=4;",
"XX+$#3:<2@:<<<<222@::<<<2@:<<<2222@:9&=4;",
"XXq$,33#*$333##***$3####*$333##***$33:=4>",
"qqq$,,,55$,,,55555$,5,555$,5555555$,539=4"
};
