/* XPM */
static char *Silver_General_W_wood[] = {
/* width height ncolors chars_per_pixel */
"39 40 30 1",
/* colors */
"  c #000000",
". c #D19849",
"X c #946A2E",
"o c #72361A",
"O c #5F301B",
"+ c #CF9239",
"@ c #E5A644",
"# c #F3B255",
"$ c #DB9F44",
"% c #F8B046",
"& c #FFC35D",
"* c #FABB58",
"= c #FFCD60",
"- c #FEC05B",
"; c #FFFF86",
": c #FEB140",
"> c #FFF47C",
", c #EAA940",
"< c #FBB754",
"1 c #5D391C",
"2 c #FEC264",
"3 c #F2AA41",
"4 c #FFE66E",
"5 c #E3AD59",
"6 c #803C19",
"7 c #562C1A",
"8 c #FFB542",
"9 c #FEB958",
"0 c #B5843B",
"q c None",
/* pixels */
"00.+,,55555$,555555$,,,555$,,5555$,#-=4",
"X0.+,333#**$3#3#***$33###*$33###*$3-=4>",
"X0.$3:<<<22@:::<222@:::<<2@::<<<2,8=44;",
"X0.+3:9:922,::9922,,:::992,::9992,88=4q",
"XX.+3:99922,::9922,:::9992,::9992,8-=>q",
"qX0+3::9922,:::922,::9:992,:99992,8-4>q",
"qX0+3::99oo,:9:922,:o:9992,:96992,8-=>q",
"qX0+,::99OOO::9922ooo9:992,77O99238-=>q",
"qXX+,3:9ooooo:99oooooo:926ooO779238-=>q",
"qXX+,3:9922oo:oo22oo:9o6666:99992384=>q",
"q6X+,3:992,9OO9222OO99:92oo::999238=4>q",
"q6X0@#<922,:979222Oo:9:966o9oo992%8=4qq",
"qqX0$#:922,::oo2226699:6266966992%-=4qq",
"qqX0+#<922,77972227799O12OO::1992%-=4qq",
"qqXX+#:92o66:9622266:666266:9:692%-=4qq",
"qqXX.539ooO:999O221199:o2oo:999928==4qq",
"qqXX+539227:9:97227O:9:92oo::99228==4qq",
"qqXX0@#<22,:999722Oo:oooooooooo2=4=4qqq",
"qqqX0$3<2,oo::9o22oo:9oo9oo::992=4=4qqq",
"qqqX0.3<2,o6oooooooo::992oo9:99o=4=4qqq",
"qqqXX.,<2,669:922266:9992oo::962=4=4qqq",
"qqqXX.#<2,oo999222oo::oo1Oo11o92=4=4qqq",
"qqqXX.#<2,oo99922266:9:662,9:692=4=4qqq",
"qqqXX.5<2,6666666666:::92,::6992=4=4qqq",
"qqqXX+522,669:92226696692,:o6992=4=4qqq",
"qqqXX0@*2,66:9922266:6692,:6:99=4>=qqqq",
"qqqqX0$*2,6699922266:9662,66999=4>=qqqq",
"qqqqX0.#2666666oo66o:9:96,66:99=4>=qqqq",
"qqqqXX.#2,66999222,o:9992oo::99=4>=qqqq",
"qqqqXX.#2,:::92222,::999266::99=4>=qqqq",
"qqqqXX.52,::999222,:::999,:::99=4>=qqqq",
"qqqqXX.5*,:9992222,:::922,::99-=4>=qqqq",
"qqqqXX05*@:9999222,:::922,::99-=4>=qqqq",
"qqqqqX0.5@::999222,:::922,:99-&4>>qqqqq",
"qqqqqX0.5$3#3<2222,:::999,88--&44>qqqqq",
"qqqqqq00.+$,##2222,:::99238--&&44>qqqqq",
"qqqqqq00.0++$5#*22,::8--=%8---&=qqqqqqq",
"qqqqqqqqqq++..5#*2@::8--=%88-qqqqqqqqqq",
"qqqqqqqqqqqq0+.55#$339--23qqqqqqqqqqqqq",
"qqqqqqqqqqqqqq..55$,339qqqqqqqqqqqqqqqq"
};
