/* XPM */
static char *Silver_General_B_wood[] = {
/* width height ncolors chars_per_pixel */
"39 40 30 1",
/* colors */
"  c #000000",
". c #D19849",
"X c #946A2E",
"o c #72361A",
"O c #5F301B",
"+ c #CF9239",
"@ c #E5A644",
"# c #F3B255",
"$ c #DB9F44",
"% c #F8B046",
"& c #FFC35D",
"* c #FABB58",
"= c #FFCD60",
"- c #FEC05B",
"; c #FEB140",
": c #FFF47C",
"> c #EAA940",
", c #FBB754",
"< c #5D391C",
"1 c #FEC264",
"2 c #F2AA41",
"3 c #FFE66E",
"4 c #E3AD59",
"5 c #803C19",
"6 c #562C1A",
"7 c #FFB542",
"8 c #FEB958",
"9 c #443115",
"0 c #B5843B",
"q c None",
/* pixels */
"qqqqqqqqqqqqqqqq.+$>>##,1qqqqqqqqqqqqqq",
"qqqqqqqqqqqqq...4+>>#2,8=%7qqqqqqqqqqqq",
"qqqqqqqqqq0++.$44$22,;81=777&qqqqqqqqqq",
"qqqqqqq0..++$@4#*@;;8;81=%7&&&&=,qqqqqq",
"qqqqqX00.+@>>#*11>;88;811277&&&3-qqqqqq",
"qqqqqX0.4$2#,,111>;;8;811>87--=3==qqqqq",
"qqqqqX04#@;;;8111>;88;811>8;8-&3==qqqqq",
"qqqqXX04*@;;88111>;88;811>;;88-3-=3qqqq",
"qqqqXX.4*>;;88111>;;;;811>;8;8-=-=3qqqq",
"qqqqXX.41>;888111>;88;811>;8888=,=3qqqq",
"qqqqXX.#1>;866111>;;8;811>;;881=7=3qqqq",
"qqqqX0.#1>;866111>;o88811>;oo81=3=3qqqq",
"qqqqXX.#@>;oo8o11>;o5ooooooo551=3=3qqqq",
"qqqqX0.#@;;oo81oo>;o58811>8oo81=3=3qqqq",
"qqqqX0$*>;;5;811o5;558811>;55811=-=3qqq",
"qqqXX0@*>;oo8811oo;oo8811>;<o811=-=3qqq",
"qqqXX.41>;o888111>;55555555o5811=,=3qqq",
"qqqXX.41>5;;88551>;55;81>;;55811=,=3qqq",
"qqqXX.#1>55555555>;55881>;;55811=7=3qqq",
"qqqXX.#15;;;55111>;55;81>;;55811=7=3qqq",
"qqqXX.#5>;;855111>;5555555555811=7=:qqq",
"qqqX0.#1>;88551o5>;55;85>;;5o811=7=3qqq",
"qqqX0$*1555oooOOoO;Oo88o>;;;881117==:qq",
"qqXX0@*1>;;;55111>;55885>;;;581117==:qq",
"qqXX+411>;;8o5151>;o588o>;;;oo511%-=:qq",
"qqX0+4115;88551ooo;oo811o;;ooo811%-=:qq",
"qqX0+#11>o88oo1oo>;oo811O;6O88111%-=3qq",
"qqX0+#11>oo8oo1o1>;o<811O68888111%7=3qq",
"qqX0$#11>oo;ooo11>;oo888><;888111273=:q",
"qXX0@#11>;;855111>;55881>5588811127==:q",
"qXX+>#81>;;8O<<<O>;OO8866;668811127-=:q",
"qXX.>,81ooooo51115555551>;ooooo1127-=:q",
"qXX+>281>oo588111>555881>;8699111>7-=:q",
"qX0.>;81>68888111>o;;881>;;;OO111>7-=:q",
"qXX.#;81>;;888111>;;8881>;;881111>77=3q",
"qX0+2;81>;;888111>;;;881>;8881111>77=3:",
"qX0$#;81>;;;;8111>;;8881>;;881111>77=3:",
"XX+@22,1@;,,,,111@;;,,,1@;,,,1111@;&=3:",
"XX+$>2#*$222##***$2####*$222##***$2;733",
"00+$>>44$>>>44444$>4>444$>4444444$>#7=3"
};
